<svg width="209" height="206" viewBox="0 0 209 206" fill="none" xmlns="http://www.w3.org/2000/svg">
<path d="M95.2741 2.10547C128.676 19.2837 163.08 39.9362 190.481 65.7903C198.437 73.2969 202.879 81.796 204.906 92.29C207.928 107.935 208.973 127.294 203.731 142.618C188.354 187.565 133.014 214.518 88.1149 200.853C30.9192 183.446 -11.6168 134.916 6.79926 72.2015C13.3751 49.8082 33.3791 35.8178 51.8915 23.4762C60.3983 17.805 67.8115 13.6457 77.9638 13.6457" stroke="#db0000" stroke-width="3" stroke-linecap="round"/>
<path d="M51.0367 67.5H52.9601" stroke="#db0000" stroke-width="3" stroke-linecap="round"/>
<path d="M68.347 105.967C92.8388 107.015 112.908 110.152 135.665 102.121" stroke="#db0000" stroke-width="3" stroke-linecap="round"/>
<path d="M120.278 59.8064C114.972 71.4802 144.49 61.7298 123.697 61.7298C115.651 61.7298 117.383 63.1772 124.125 59.8064" stroke="#db0000" stroke-width="3" stroke-linecap="round"/>
<path d="M54.8834 59.8064C51.7624 65.3657 42.0448 77.9756 54.8834 74.7659C62.8524 72.7737 62.5767 65.7902 53.9217 65.7902C51.273 65.7902 39.7432 72.4501 41.7404 72.9494C45.4878 73.8863 52.3993 66.1372 54.8834 63.6531" stroke="#db0000" stroke-width="3" stroke-linecap="round"/>
</svg>
