<svg width="289" height="242" viewBox="0 0 289 242" fill="none" xmlns="http://www.w3.org/2000/svg">
<path d="M129.083 95.9621C124.865 103.344 114.901 105.928 110.704 113.272C108.227 117.608 109.653 126.662 109.85 131.438C110.47 146.532 122.7 164.482 137.845 168.088C168.421 175.368 194.294 141.856 187.853 113.272C182.845 91.0503 161.179 76.7758 140.623 89.3372C133.711 93.5613 125.162 99.183 123.313 107.502C122.018 113.332 120.666 116.281 117.543 120.966" stroke="#db0000" stroke-width="3" stroke-linecap="round"/>
<path d="M142.547 88.2689C146.326 67.136 149.157 45.2926 154.621 24.4772C155.917 19.5417 156.526 19.3414 159.857 16.6769C163.775 13.5424 166.424 10.365 171.397 8.98341C181.823 6.08749 188.159 5.74557 198.218 9.51768C217.786 16.856 200.744 68.7044 188.708 76.7287" stroke="#db0000" stroke-width="3" stroke-linecap="round"/>
<path d="M194.478 84.4221C215.196 70.0415 234.045 54.9159 259.872 67.1118C275.085 74.2959 286.173 83.9981 286.799 102.16C287.955 135.683 222.536 122.889 202.171 122.889" stroke="#db0000" stroke-width="3" stroke-linecap="round"/>
<path d="M211.788 126.736C229.765 131.872 256.9 135.453 267.245 153.556C271.064 160.24 273.484 167.63 277.182 174.393C281.913 183.042 286.61 188.909 276.114 193.947C257.776 202.749 238.953 186.233 224.717 177.064C215.399 171.063 205.486 165.49 196.401 159.433" stroke="#db0000" stroke-width="3" stroke-linecap="round"/>
<path d="M194.478 163.28C206.382 183.707 221.49 205.037 212.75 229.316C209.507 238.324 201.791 237.009 193.516 235.193C163.224 228.543 154.519 201.827 140.623 178.667" stroke="#db0000" stroke-width="3" stroke-linecap="round"/>
<path d="M131.007 176.744C131.765 197.348 136.114 215.62 118.825 229.316C112.276 234.504 105.656 238.602 97.2408 239.787C76.0382 242.774 64.4678 224.634 58.9871 205.701C51.4031 179.502 76.6633 155.587 102.156 155.587" stroke="#db0000" stroke-width="3" stroke-linecap="round"/>
<path d="M107.926 142.123C84.9311 147.114 59.6058 156.055 35.6931 155.587C30.017 155.475 26.1927 152.303 22.1226 148.534C14.0372 141.048 -4.70616 121.926 4.38493 109.426C10.366 101.202 21.2903 98.5917 30.4572 95.8553C41.8714 92.4481 53.228 87.7317 64.7573 84.8494C74.5012 82.4134 91.8595 89.5123 98.3093 95.9622" stroke="#db0000" stroke-width="3" stroke-linecap="round"/>
<path d="M115.62 101.732C92.4951 85.723 61.8347 71.2103 73.7329 38.2612C78.9969 23.684 96.2406 2.97857 113.269 1.71722C130.19 0.463764 138.527 38.57 138.7 50.8699C138.998 72.0266 137.753 92.4995 142.547 113.272" stroke="#db0000" stroke-width="3" stroke-linecap="round"/>
</svg>
