<svg width="206" height="209" viewBox="0 0 206 209" fill="none" xmlns="http://www.w3.org/2000/svg">
<path d="M111.688 42.2638C124.161 21.3534 139.474 5.38481 163.726 16.2984C174.173 20.9993 193.619 30.9505 197.813 42.6912C201.048 51.7513 205.706 62.0533 203.903 71.9691C201.739 83.8748 190.025 89.3703 183.28 98.0414C163.795 123.094 139.088 146.643 132.418 179.25C130.692 187.688 130.922 195.865 130.922 204.468C130.922 214.603 132.845 190.108 132.845 186.73C132.845 174.866 136.692 163.928 136.692 151.896C136.692 140.564 106.59 132.226 98.2249 129.67C81.5119 124.563 64.8298 121.594 48.2173 116.848C31.6417 112.112 16.7372 91.7088 7.93348 77.9529C0.365053 66.1273 0.159272 50.644 5.04843 37.9897C15.224 11.6528 38.929 -4.6732 67.451 4.6513C77.9796 8.09334 93.8307 13.9017 101.003 23.0301C106.293 29.7631 107.197 36.4829 109.765 44.1872" stroke="#FF0000" stroke-width="3" stroke-linecap="round"/>
</svg>
