<svg width="111" height="148" viewBox="0 0 111 148" fill="none" xmlns="http://www.w3.org/2000/svg">
<path d="M29.5153 18.6292C19.8655 48.4212 7.02371 79.6557 2.58818 110.951C1.35126 119.678 3.74461 122.67 9.42682 128.475C18.5795 137.824 27.0539 145.713 40.6281 145.571C71.3464 145.251 93.5521 103.818 103.138 79.3222C113.3 53.3523 110.519 22.2246 84.7587 6.76848C73.7707 0.175719 56.9516 1.23409 44.9023 3.24231" stroke="#FF0000" stroke-width="3" stroke-linecap="round"/>
<path d="M81.4463 60.9434L87.2164 59.02" stroke="#FF0000" stroke-width="3" stroke-linecap="round"/>
<path d="M46.8257 53.2499C49.4627 53.2499 59.0439 53.3453 59.4344 49.8306C59.6225 48.1385 46.1788 54.535 44.9023 55.1732" stroke="#FF0000" stroke-width="3" stroke-linecap="round"/>
<path d="M35.2854 103.257C45.0212 100.661 57.8823 97.4873 67.9826 97.4873" stroke="#FF0000" stroke-width="3" stroke-linecap="round"/>
<path d="M73.7528 70.5603C66.1599 75.0049 58.0743 78.3995 50.6724 82.1005" stroke="#FF0000" stroke-width="3" stroke-linecap="round"/>
</svg>
