<svg width="217" height="229" viewBox="0 0 217 229" fill="none" xmlns="http://www.w3.org/2000/svg">
<path d="M24.8687 50.8289C27.5008 75.6985 31.6192 116.689 35.1116 142.702C37.0748 157.326 38.8178 172.651 45.1411 186.216C50.8912 198.551 59.4673 209.806 70.9619 217.508C97.2045 235.092 130.54 226.942 154.399 210.343C190.785 185.029 217.695 150.911 214.576 105.405C211.629 62.3983 193.102 26.1701 149.278 11.4244C102.785 -4.21904 45.1072 1.01051 1.82208 22.3818" stroke="#FF0000" stroke-width="3" stroke-linecap="round"/>
<path d="M74.7538 77.1761C84.8404 70.858 94.0062 65.2019 105.1 61.3617C109.822 59.7271 97.895 62.4003 96.7656 62.7508C91.8366 64.2805 66.8955 68.6169 65.2438 74.3979C63.4712 80.602 63.3236 87.852 72.8304 84.8695C86.6227 80.5425 95.3099 71.2852 99.7575 57.9424" stroke="#FF0000" stroke-width="3" stroke-linecap="round"/>
<path d="M161.305 56.0188C153.064 56.9553 145.054 58.7287 137.049 60.9341C132.255 62.2549 119.15 64.6846 123.479 67.1316C127.121 69.1902 132.853 66.621 136.302 65.6356" stroke="#FF0000" stroke-width="3" stroke-linecap="round"/>
<path d="M99.7575 90.6394C98.6228 91.6721 75.5914 110.283 78.0662 112.758C81.1494 115.841 87.7261 115.72 91.6366 115.216C98.4011 114.343 106.731 110.593 111.298 106.026" stroke="#FF0000" stroke-width="3" stroke-linecap="round"/>
<path d="M63.2136 156.034C97.9552 149.992 131.695 140.647 167.075 140.647" stroke="#FF0000" stroke-width="3" stroke-linecap="round"/>
</svg>
