<svg width="161" height="230" viewBox="0 0 161 230" fill="none" xmlns="http://www.w3.org/2000/svg">
<path d="M52.8944 15.2922C44.4313 17.4697 36.1104 20.0689 27.6509 22.2454C25.3508 22.8372 23.429 24.2599 21.2485 25.1656C19.0704 26.0702 16.7932 26.9494 14.8572 28.3884C12.8521 29.8788 9.34797 31.6218 8.94972 34.618C8.44562 38.4104 10.7989 40.2333 13.7066 41.4132C21.2793 44.4862 30.1009 42.6238 37.6481 41.8722C43.2062 41.3188 49.2928 39.398 54.4423 37.2457C65.6503 32.5614 77.8464 29.9512 89.5849 26.931C92.7391 26.1194 98.1007 25.2657 99.7338 22.0285C100.681 20.1515 100.769 17.3901 100.221 15.2589C99.6137 12.9001 99.5817 11.1816 97.6482 9.93818C94.8468 8.13668 90.5498 9.09883 87.5371 8.92469C85.1765 8.78823 82.7292 9.69361 80.4011 9.94609C77.4636 10.2647 74.5092 10.3163 71.6077 10.9357C68.6091 11.5758 65.46 11.1427 62.4763 11.9104C58.891 12.8329 54.9282 13.8535 51.8763 16.0124" stroke="#db0000" stroke-width="3" stroke-linecap="round"/>
<path d="M9.89167 33.6883C9.56641 41.2428 9.12302 48.6486 9.4846 56.2721C9.65062 59.7724 10.2944 63.6097 10.8647 67.0929C11.3523 70.0711 11.5801 72.9916 12.3361 75.9299C14.2083 83.2063 17.774 90.1264 20.2418 97.215C21.1348 99.7803 22.2305 101.913 22.9146 104.572C23.5099 106.886 24.7684 108.659 25.3811 111.04C26.4255 115.099 28.4509 119.272 30.1076 123.087C31.3947 126.051 33.1754 128.924 34.9122 131.627C36.7239 134.446 39.4066 137.384 40.8638 140.38C42.8702 144.506 45.7364 147.985 47.6854 152.169C50.0937 157.338 53.0212 162.159 55.2368 167.486C61.8766 183.452 65.7069 200.731 70.0337 217.547" stroke="#db0000" stroke-width="3" stroke-linecap="round"/>
<path d="M98.8053 11.0037C103.839 17.1752 108.943 23.1496 113.083 29.7966C114.984 32.8485 116.439 36.4749 117.779 39.7581C118.924 42.5653 120.388 45.166 121.144 48.1027C123.015 55.375 122.363 63.376 123.308 70.852C123.65 73.5574 123.454 76.0214 124.137 78.6788C124.732 80.9912 124.095 83.2507 124.708 85.6307C125.751 89.6876 125.528 94.4367 125.589 98.6599C125.637 101.941 124.957 105.445 124.233 108.779C123.478 112.257 121.608 116.364 121.444 119.776C121.217 124.473 119.427 129.148 119.314 133.86C119.174 139.681 118.115 145.524 118.334 151.362C118.991 168.858 124.272 185.753 128.596 202.56" stroke="#db0000" stroke-width="3" stroke-linecap="round"/>
<path d="M129.7 203.112C124.045 204.319 118.174 203.407 112.482 204.793C105.368 206.525 98.2947 208.443 91.2037 210.267C86.464 211.487 80.5595 211.861 76.8868 215.428C75.2503 217.017 73.3072 218.08 71.1176 218.643" stroke="#db0000" stroke-width="3" stroke-linecap="round"/>
<path d="M71.1177 218.643C78.5915 219.782 85.5777 218.485 92.7579 217.174C101.185 215.636 109.799 214.648 118.101 212.512C121.621 211.606 124.363 209.64 127.417 207.925C129.461 206.778 132.296 205.753 133.418 203.53" stroke="#db0000" stroke-width="3" stroke-linecap="round"/>
<path d="M113.839 30.7717C106.425 37.4293 98.2321 42.1991 89.3799 46.2296C83.0537 49.11 77.3422 52.5345 70.5479 54.2826C60.3763 56.8997 50.1803 57.006 39.8055 57.9664C37.7776 58.1541 35.7161 57.6875 33.6852 57.9118C31.2474 58.1811 28.8271 58.4477 26.3476 58.3232C23.6305 58.1867 21.1338 57.7038 18.5296 57.127C15.3005 56.4119 12.4916 54.8481 9.22412 54.4807" stroke="#db0000" stroke-width="3" stroke-linecap="round"/>
<path d="M39.1252 116.785C37.6956 117.893 38.4571 120.808 40.1297 121.651C42.3165 122.753 45.0644 121.32 47.0796 122.71C48.2182 123.495 48.9032 126.542 48.3185 127.799C47.3866 129.803 44.3746 130.807 42.5365 131.28" stroke="#db0000" stroke-width="3" stroke-linecap="round"/>
<path d="M55.489 130.97C55.668 127.883 55.5226 124.725 55.4686 121.622C55.4251 119.121 54.533 113.567 55.6373 111.086C56.4779 109.198 58.1664 113.946 58.3946 114.525C60.1289 118.927 61.7941 123.344 62.9781 127.945" stroke="#db0000" stroke-width="3" stroke-linecap="round"/>
<path d="M54.927 120.134L60.2619 119.86" stroke="#db0000" stroke-width="3" stroke-linecap="round"/>
<path d="M63.4616 103.106C65.0023 110.14 66.1602 117.302 67.9546 124.276" stroke="#db0000" stroke-width="3" stroke-linecap="round"/>
<path d="M62.5332 104.443C64.8889 105.188 71.2136 107.806 68.5496 111.761C68.0293 112.533 67.4102 113.18 66.884 113.938" stroke="#db0000" stroke-width="3" stroke-linecap="round"/>
<path d="M74.7377 101.388C75.8587 108.913 76.9557 116.441 78.0045 123.971" stroke="#db0000" stroke-width="3" stroke-linecap="round"/>
<path d="M74.1084 102.648C75.8712 102.319 80.2036 100.508 81.9395 102.463C82.7833 103.413 83.8365 106.608 82.7845 107.532C81.0011 109.098 78.15 109.294 75.9632 109.857" stroke="#db0000" stroke-width="3" stroke-linecap="round"/>
<path d="M83.5188 111.854C84.1169 114.628 87.1894 120.787 90.3611 119.223C92.2149 118.309 92.993 115.348 92.6862 113.155C91.9855 108.146 87.0054 106.361 84.3584 110.174" stroke="#db0000" stroke-width="3" stroke-linecap="round"/>
<path d="M98.0333 101.531C97.4314 106.961 97.9905 112.474 98.1308 117.976" stroke="#db0000" stroke-width="3" stroke-linecap="round"/>
<path d="M96.3987 100.122C98.8595 102.544 101.007 106.686 101.168 110.282C101.216 111.354 101.721 111.703 102.629 111.98C104.002 112.397 105.507 112.784 106.879 112.431" stroke="#db0000" stroke-width="3" stroke-linecap="round"/>
<path d="M111.085 100.493C109.844 103.514 109.219 105.966 109.506 109.46C109.559 110.106 109.816 113.438 110.708 114.132C110.836 114.231 111.877 114.208 112.056 114.151C113.956 113.55 114.677 109.664 114.724 107.771C114.794 105.022 111.681 99.988 109.528 103.09" stroke="#db0000" stroke-width="3" stroke-linecap="round"/>
<path d="M66.6608 77.9623C64.8762 73.0825 65.4128 68.9889 65.6599 64.3709C65.7148 63.3448 65.317 62.3542 66.5515 62.6395C67.9775 62.969 68.8591 63.5375 69.8622 64.7662C71.7049 67.0235 73.2219 69.4408 74.9879 71.6957C76.8297 74.0473 77.3813 73.8293 80.0826 73.1343C82.2239 72.5833 84.4524 72.9264 86.4907 72.402C86.8825 72.3012 89.5244 71.8104 89.3432 72.2281C88.2076 74.8448 85.961 76.0017 84.2374 78.0223C83.2235 79.211 80.7627 79.2949 80.6763 81.3316C80.5058 85.3512 83.6924 88.2714 85.2298 91.6669C85.7241 92.7588 88.7967 98.3493 85.4551 97.1332C83.5353 96.4345 81.3509 95.0247 79.5824 93.8836C77.6598 92.643 75.5432 91.9823 73.6064 90.8388C72.7823 90.3522 71.8749 89.9747 71.2351 89.1578C70.0921 87.6984 70.0628 88.6472 68.9432 89.9511C65.8394 93.5657 62.7009 97.7422 58.8106 100.374C57.3662 101.351 58.0106 97.4803 58.1669 96.7461C58.5841 94.7862 58.8359 93.6514 59.8791 92.0541C60.2194 91.5331 62.5839 89.214 61.7854 88.636C60.1967 87.4859 58.504 86.7064 56.9455 85.5026C55.18 84.1389 53.5178 83.0115 51.9017 81.4033C50.431 79.9398 50.6848 80.2072 52.2857 78.9115C54.3482 77.2421 56.7402 75.8727 59.3802 76.1696" stroke="#db0000" stroke-width="3" stroke-linecap="round"/>
<path d="M104.208 55.7032C105.015 62.6219 107.173 70.6149 104.49 77.0661C102.603 81.6014 100.098 86.2815 97.3518 90.2058C96.2503 91.78 94.8476 93.0333 93.7561 94.5932" stroke="#db0000" stroke-width="3" stroke-linecap="round"/>
<path d="M25.6868 68.5744C27.659 77.108 30.288 85.0373 34.1243 92.8794C35.18 95.0375 36.2914 97.0708 37.8732 98.7884C39.3248 100.365 41.4889 101.978 43.2797 102.998C46.5181 104.842 49.8266 106.343 53.2992 107.294" stroke="#db0000" stroke-width="3" stroke-linecap="round"/>
</svg>
