<svg width="339" height="235" viewBox="0 0 339 235" fill="none" xmlns="http://www.w3.org/2000/svg">
<path d="M90.2013 154.281C129.67 146.459 171.438 141.203 208.488 124.362C225.605 116.582 244.934 107.615 257.962 93.8021C270.494 80.5153 283.354 67.5442 295.895 54.2662C303.43 46.2881 308.033 36.196 315.235 28.1939C323.765 18.7161 329.717 40.0275 331.477 45.5042C337.687 64.8253 337.665 88.5499 334.896 108.548C332.314 127.196 328.555 146.773 316.731 161.975C301.986 180.933 276.658 197.302 254.542 205.785C230.221 215.113 207.439 224.613 181.454 228.865C164.005 231.721 146.458 233.139 128.669 233.139C103.687 233.139 83.6003 231.296 63.381 214.867C51.184 204.957 36.9682 195.079 25.8754 183.987C18.3849 176.496 7.08022 163.81 5.46632 153.32C5.20772 151.639 1.17111 144.397 2.15385 143.169C4.17679 140.64 12.2715 138.051 15.19 137.078C30.0804 132.114 44.9904 137.036 59.3206 141.673C77.5516 147.571 98.2814 147.167 117.128 151.289C124.599 152.924 147.637 152.889 151.749 144.664" stroke="#db0000" stroke-width="3" stroke-linecap="round"/>
<path d="M105.588 150.435C105.702 177.277 100.989 205.537 116.274 228.865C119.428 233.68 122.42 227.848 124.822 225.446" stroke="#db0000" stroke-width="3" stroke-linecap="round"/>
<path d="M155.596 129.278C172.5 146.182 186.472 166.392 201.329 185.055C206.308 191.31 210.931 199.341 218.105 203.327C220.965 204.916 223.462 206.212 226.76 206.212" stroke="#db0000" stroke-width="3" stroke-linecap="round"/>
<path d="M247.917 96.5803C263.613 116.128 278.303 138.721 297.925 154.709C302.676 158.58 308.42 161.248 312.884 165.394C318.251 170.377 321.31 170.982 324.852 163.898" stroke="#db0000" stroke-width="3" stroke-linecap="round"/>
<path d="M95.9714 38.8794C92.6624 40.6312 90.301 53.7584 91.8041 53.4115C96.0113 52.4406 101.13 39.6687 102.169 35.6738C103.779 29.4831 106.206 20.5999 97.4674 25.8432C94.4496 27.6539 73.9013 41.364 82.5078 46.1454C86.847 48.5561 93.6567 46.1981 95.9714 42.7261" stroke="#db0000" stroke-width="3" stroke-linecap="round"/>
<path d="M217.144 2.33545C211.995 5.71855 176.439 29.5258 179.531 34.6053C181.887 38.4763 193.626 30.6364 195.132 29.69C199.139 27.1714 227.539 0.838874 216.716 2.76286C210.466 3.87395 175.553 10.3241 179.104 21.5691C181.644 29.6131 196.472 14.348 197.91 11.9523" stroke="#db0000" stroke-width="3" stroke-linecap="round"/>
</svg>
