<svg width="135" height="47" viewBox="0 0 135 47" fill="none" xmlns="http://www.w3.org/2000/svg">
<path d="M12.2336 2.01978C12.2336 10.3866 12.2336 18.7534 12.2336 27.1202C12.2336 33.6574 17.2537 38.1533 17.2537 44.6905" stroke="#db0000" stroke-width="3" stroke-linecap="round"/>
<path d="M2.19336 2.01978H29.8038" stroke="#db0000" stroke-width="3" stroke-linecap="round"/>
<path d="M54.9042 12.0599C54.6916 16.0989 44.376 41.8506 52.9519 42.1804C61.1027 42.4939 69.3341 42.1804 77.4945 42.1804" stroke="#db0000" stroke-width="3" stroke-linecap="round"/>
<path d="M130.206 9.54993C117.405 9.54993 99.763 15.4014 95.6227 30.188C91.6837 44.2561 126.808 38.6372 132.716 37.1604" stroke="#db0000" stroke-width="3" stroke-linecap="round"/>
<path d="M34.3684 39.3533C33.1809 39.5017 35.9475 40.4281 34.3684 38.4543C34.0021 37.9964 32.5237 37.9077 32.6703 38.7873C32.7879 39.4931 34.9011 40.5099 34.9011 39.6529C34.9011 38.8842 30.4429 39.2924 32.5704 40.4188C34.7207 41.5571 36.0237 38.3068 33.7691 37.5553" stroke="#db0000" stroke-width="3" stroke-linecap="round"/>
<path d="M87.7087 39.3533C88.3711 39.4361 90.6253 40.9517 91.2381 40.1857C92.1629 39.0297 90.1307 37.3397 89.0406 37.6885C87.0371 38.3296 89.2832 39.886 90.3391 39.886C91.2841 39.886 89.0601 38.754 88.3081 38.754" stroke="#db0000" stroke-width="3" stroke-linecap="round"/>
</svg>
