<svg width="217" height="200" viewBox="0 0 217 200" fill="none" xmlns="http://www.w3.org/2000/svg">
<path d="M77.7318 8.80715C94.0183 11.5888 110.128 16.1734 126.306 19.5895C147.948 24.1592 169.878 26.6996 191.88 28.4802C196.121 28.8235 219.144 27.3708 214.271 35.8787C198.984 62.566 181.484 87.9759 168.92 116.267C159.231 138.084 149.407 159.598 140.43 181.787C138.767 185.898 137.293 195.278 132.269 193.248C107.183 183.113 79.3047 182.532 52.7966 180.387C39.6375 179.322 26.4783 178.257 13.3191 177.192C10.3508 176.952 4.92103 177.956 2.22933 177.085C0.671436 176.581 2.79295 167.42 2.99956 166.343C5.49896 153.322 10.6822 140.754 16.7126 129.139C23.0927 116.851 28.1607 103.832 34.4805 91.4205C38.3101 83.8994 39.9251 75.4827 43.0427 67.6601C45.0756 62.5592 48.1197 57.9705 50.0884 52.8416C53.381 44.2639 57.6482 36.0671 61.4808 27.7819C63.6164 23.1654 65.0438 17.879 67.9708 13.7089C69.5805 11.4155 71.3475 5.65547 73.6067 4.67882" stroke="#FF0000" stroke-width="3" stroke-linecap="round"/>
<path d="M59.4903 59.5136C56.9526 66.8803 53.5375 74.0145 51.4575 81.6304" stroke="#FF0000" stroke-width="3" stroke-linecap="round"/>
<path d="M42.313 116.518C46.8774 117.269 51.3792 119.35 55.8509 120.495C66.5757 123.241 77.5688 125.367 88.5828 126.772C101.681 128.444 114.779 129.067 127.813 131.121" stroke="#FF0000" stroke-width="3" stroke-linecap="round"/>
<path d="M34.4092 134.165C48.0012 135.265 61.1284 140.388 74.529 142.893C93.5595 146.451 112.791 149.047 132.072 150.607" stroke="#FF0000" stroke-width="3" stroke-linecap="round"/>
<path d="M20.8604 147.298C54.5779 157.373 88.2394 166.981 123.382 169.825" stroke="#FF0000" stroke-width="3" stroke-linecap="round"/>
<path d="M71.6236 29.1825C67.5842 34.7066 66.471 39.6567 64.0485 45.6446" stroke="#FF0000" stroke-width="3" stroke-linecap="round"/>
<path d="M64.5339 46.195C66.8143 46.683 73.1805 48.9789 74.7288 45.269C75.6737 43.0049 76.302 40.7876 76.5009 38.3306C76.7439 35.3274 76.2932 30.9229 72.7656 30.6374" stroke="#FF0000" stroke-width="3" stroke-linecap="round"/>
<path d="M87.2249 35.0524C83.3762 37.5667 79.9526 40.0601 79.4322 45.1861C79.1208 48.252 79.5555 51.6201 83.331 50.8581C87.4266 50.0314 88.5824 45.2422 89.6376 41.7372C90.4773 38.9479 88.5445 36.978 86.7547 35.4779" stroke="#FF0000" stroke-width="3" stroke-linecap="round"/>
<path d="M94.3238 38.8717C93.1854 42.2057 92.0061 45.9704 91.7182 49.5282C91.6169 50.7797 92.0163 53.5554 93.5062 51.9649C95.2317 50.1229 95.8487 47.9938 96.8161 45.769C97.2027 44.8798 98.5598 40.3772 98.3344 43.1621C98.1413 45.5489 97.4419 48.4785 98.2507 50.778C98.4824 51.4369 99.006 54.0447 99.6254 54.134C101.945 54.4685 103.213 48.2731 103.626 46.5777C104.376 43.5038 104.858 40.5627 105.767 37.4801" stroke="#FF0000" stroke-width="3" stroke-linecap="round"/>
<path d="M106.628 53.7736C107.063 49.296 109.623 40.5734 115.045 41.0122C120.075 41.4193 116.082 50.0299 115.831 53.1278" stroke="#FF0000" stroke-width="3" stroke-linecap="round"/>
<path d="M123.108 43.9826C121.752 49.4558 120.014 55.2926 119.564 60.8467" stroke="#FF0000" stroke-width="3" stroke-linecap="round"/>
<path d="M120.431 60.9166C121.896 61.3467 123.224 61.6062 124.723 61.7275" stroke="#FF0000" stroke-width="3" stroke-linecap="round"/>
<path d="M136.381 46.9109C133.913 46.3826 132.118 45.3503 130.831 47.8781C129.951 49.6058 129.403 51.5132 128.557 53.2308C126.716 56.9689 128.642 60.2881 131.73 61.5994C134.924 62.9563 139.859 58.6952 140.859 55.5912C141.554 53.4333 141.128 51.6452 140.062 49.887C139.182 48.4375 136.557 47.9417 135.985 46.4153" stroke="#FF0000" stroke-width="3" stroke-linecap="round"/>
<path d="M142.795 64.5808C147.013 60.6791 149.834 56.599 153.2 52.0833C153.768 51.3221 155.599 48.5149 156.417 50.026C157.928 52.8163 157.077 58.1261 156.165 60.9244C155.581 62.7154 156.112 65.6586 154.052 65.4918" stroke="#FF0000" stroke-width="3" stroke-linecap="round"/>
<path d="M148.117 58.0585C150.684 58.5704 153.247 59.4008 155.835 59.6102" stroke="#FF0000" stroke-width="3" stroke-linecap="round"/>
<path d="M166.427 52.5873C164.706 56.4697 163.133 60.7099 161.128 64.2105" stroke="#FF0000" stroke-width="3" stroke-linecap="round"/>
<path d="M167.367 51.7363C170.419 53.3626 174.51 55.0223 174.16 59.3421C173.96 61.8151 174.318 64.4191 172.31 66.0425C169.603 68.2311 163.124 68.1784 160.546 66.0174" stroke="#FF0000" stroke-width="3" stroke-linecap="round"/>
<path d="M59.6963 59.3381C62.4088 59.5577 66.3191 62.5607 67.9826 64.6441C70.0816 67.2729 67.1436 69.2949 65.5126 70.9338C64.8317 71.6179 63.077 72.0132 62.1515 72.0781C60.6726 72.1819 59.6584 72.1755 60.5331 73.827C62.067 76.7228 63.8749 79.5549 65.6598 82.2766C66.8266 84.0558 68.3966 86.4522 68.2093 88.7664" stroke="#FF0000" stroke-width="3" stroke-linecap="round"/>
<path d="M88.4841 91.3344C84.6007 90.2695 81.6908 89.7551 79.5484 85.9759C78.396 83.9432 77.314 81.738 77.2821 79.2772C77.2548 77.1775 76.8057 74.9588 76.9036 72.8858C77.0088 70.6571 79.2786 68.6944 80.6593 67.1638C82.1398 65.5225 84.2892 65.4613 86.0612 66.8284C88.2119 68.4878 88.6488 70.6777 89.3069 73.0913C90.3558 76.9379 83.1864 79.2232 80.8687 77.7391" stroke="#FF0000" stroke-width="3" stroke-linecap="round"/>
<path d="M107.591 70.631C105.467 70.4591 103.467 69.3702 101.22 69.1883C99.3426 69.0364 98.4125 71.1324 97.6483 72.6333C95.4416 76.9669 96.8398 80.4132 100.649 82.2242C103.393 83.529 108.167 87.0711 107.228 90.9716C107.043 91.7422 104.078 93.4805 103.371 93.4663C100.695 93.4127 98.8362 92.7985 96.7849 91.0792" stroke="#FF0000" stroke-width="3" stroke-linecap="round"/>
<path d="M117.758 74.2351C114.135 75.9378 110.872 84.9073 110.475 88.8394C110.147 92.0816 109.892 95.0967 112.872 96.9136C115.803 98.7007 119.286 95.8878 120.664 93.3723C123.043 89.0284 126.951 84.4883 127.38 79.1857" stroke="#FF0000" stroke-width="3" stroke-linecap="round"/>
<path d="M160.721 108.769C157.145 107.878 154.506 107.292 152.389 104.026C150.573 101.222 149.731 99.1735 150.017 95.6448C150.361 91.3936 151.051 87.6661 152.49 83.6384C153.261 81.4809 153.836 79.009 156.238 79.2034C159.619 79.477 161.817 79.869 164.04 82.7191C164.713 83.5821 167.084 86.0798 166.273 87.4322C164.967 89.6107 160.96 90.6651 158.711 90.5284C157.378 90.4475 155.671 90.5509 154.45 89.9261C153.774 89.5802 153.501 89.1798 152.724 89.1168" stroke="#FF0000" stroke-width="3" stroke-linecap="round"/>
<path d="M52.105 108.23C76.9535 111.768 101.855 114.757 126.479 119.606C128.712 120.046 131.183 120.074 132.941 121.726" stroke="#FF0000" stroke-width="3" stroke-linecap="round"/>
<path d="M126.706 98.7595C128.227 93.5423 130.201 89.6185 132.511 84.9112C132.811 84.301 134.719 79.6417 135.362 81.6964C136.595 85.6394 135.316 98.3281 135.785 94.1858C136.109 91.3302 139.075 76.2317 143.697 82.1369C145.785 84.8049 143.782 90.6411 143.392 93.6954C143.011 96.6741 142.76 99.8552 142.656 102.855" stroke="#FF0000" stroke-width="3" stroke-linecap="round"/>
</svg>
