<svg width="293" height="192" viewBox="0 0 293 192" fill="none" xmlns="http://www.w3.org/2000/svg">
<path d="M159.637 57.5113C123.612 63.9756 83.8014 75.8052 66.8198 104.02C61.0323 113.635 60.0499 123.635 67.1515 132.697C75.2146 142.986 98.0897 140.429 110.807 140.369C132.931 140.264 160.254 135.968 175.427 121.85C187.689 110.442 202.328 90.2473 189.492 76.0299C182.867 68.6919 177.514 63.2161 166.802 60.3685" stroke="#FF0000" stroke-width="3" stroke-linecap="round"/>
<path d="M123.81 87.0352C119.51 88.9406 109.813 91.5146 108.153 95.8183C106.309 100.598 103.661 106.737 104.437 111.797C104.972 115.281 109.331 116.176 113.062 116.506C126.796 117.723 133.369 107.711 140.529 100.369C145.503 95.2691 146.239 89.3907 137.875 87.2469C133.812 86.2053 120.271 84.109 117.839 87.9876" stroke="#FF0000" stroke-width="3" stroke-linecap="round"/>
<path d="M116.644 40.3682C148.229 49.9797 181.16 56.2404 212.779 65.6064C222.984 68.6295 233.265 71.5093 243.828 73.6488C256.632 76.2422 271.916 76.5683 283.834 81.3208" stroke="#FF0000" stroke-width="3" stroke-linecap="round"/>
<path d="M287.417 82.2732C250.901 103.379 212.604 123.218 177.55 145.871C170.741 150.271 164.349 155.098 157.248 159.205C149.889 163.461 141.659 168.39 136.946 174.655" stroke="#FF0000" stroke-width="3" stroke-linecap="round"/>
<path d="M136.947 174.655C117.717 166.869 97.4316 161.153 77.2358 155.184C67.7813 152.389 58.3819 148.927 48.7073 146.612C43.7742 145.432 37.673 142.274 32.4527 142.274C26.5811 142.274 16.6781 142.412 11.554 140.369" stroke="#FF0000" stroke-width="3" stroke-linecap="round"/>
<path d="M117.838 40.3682C100.021 57.6785 82.5414 74.7306 62.3737 90.3156C56.0118 95.2318 48.3512 99.9133 42.6028 105.342C37.5361 110.127 32.3854 114.852 27.078 119.469C23.3466 122.716 19.9876 126.318 16.8608 129.945C14.577 132.595 10.4315 134.481 9.16479 137.512" stroke="#FF0000" stroke-width="3" stroke-linecap="round"/>
<path d="M7.97085 141.321C7.32692 145.532 3.71448 155.07 7.97085 158.464" stroke="#FF0000" stroke-width="3" stroke-linecap="round"/>
<path d="M139.335 174.655V189.893" stroke="#FF0000" stroke-width="3" stroke-linecap="round"/>
<path d="M139.335 189.893C101.651 179.422 62.3344 169.639 22.368 166.983C15.507 166.527 8.92802 165.131 2 165.131" stroke="#FF0000" stroke-width="3" stroke-linecap="round"/>
<path d="M147.694 187.988C183.71 167.042 220.354 148.342 258.424 129.998C261.447 128.542 263.277 126.656 265.921 124.919C269.427 122.617 272.214 119.16 275.475 116.559C281.318 111.899 285.198 105.948 291 101.321" stroke="#FF0000" stroke-width="3" stroke-linecap="round"/>
<path d="M20.5815 149.365C35.6111 157.251 35.2459 140.78 22.5878 148.897C14.2311 154.257 20.3616 164.564 26.6004 151.471" stroke="#FF0000" stroke-width="3" stroke-linecap="round"/>
<path d="M44.6569 153.576C38.9712 163.852 52.5841 160.725 48.2237 156.149C45.6968 153.498 45.5204 154.176 42.6506 155.681" stroke="#FF0000" stroke-width="3" stroke-linecap="round"/>
<path d="M155.331 65.4467C165.767 67.8471 176.409 76.5045 176.409 88.5711" stroke="#FF0000" stroke-width="3" stroke-linecap="round"/>
<path d="M85.3898 95.609C77.2831 102.585 74.0967 111.445 76.1814 122.141C77.2755 127.754 82.5285 133.312 88.2641 133.312" stroke="#FF0000" stroke-width="3" stroke-linecap="round"/>
<path d="M91.1384 103.15C88.1031 107.56 85.2576 114.549 88.0246 119.711C88.9036 121.351 91.0119 124.448 92.5755 125.269" stroke="#FF0000" stroke-width="3" stroke-linecap="round"/>
<path d="M152.457 74.9981C156.699 76.8441 160.99 81.0622 163.235 85.3036C163.735 86.2487 163.876 87.1923 164.433 88.0684" stroke="#FF0000" stroke-width="3" stroke-linecap="round"/>
<path d="M282.773 83.3589C283.509 90.5919 283.391 98.2458 285.934 104.917" stroke="#FF0000" stroke-width="3" stroke-linecap="round"/>
<path d="M225.895 79.8476C211.536 80.601 206.097 111.216 224.307 107.307C233.068 105.427 241.28 99.1776 241.9 88.9785C242.146 84.9322 243.349 81.376 238.915 79.7143C235.701 78.5099 232.624 78.9138 229.324 78.0481" stroke="#FF0000" stroke-width="3" stroke-linecap="round"/>
<path d="M224.18 89.4452C217.363 91.7344 210.343 93.1707 203.57 95.7769C198.079 97.8898 191.779 98.4256 186.454 100.842C183.702 102.091 179.959 103.254 177.054 103.808C173.104 104.562 169.034 105.418 165.05 106.374C160.676 107.423 156.444 107.14 152.157 108.64" stroke="#FF0000" stroke-width="3" stroke-linecap="round"/>
<path d="M226.466 93.0443C213.13 97.5227 199.333 100.601 185.913 104.708C182.714 105.687 179.639 107.011 176.45 108.04C173.874 108.872 170.605 109.844 168.416 111.306C166.888 112.326 164.73 111.124 163.144 112.372C162.268 113.062 158.842 113.996 157.746 114.039C154.961 114.147 152.18 115.226 149.87 116.438" stroke="#FF0000" stroke-width="3" stroke-linecap="round"/>
<path d="M149.87 108.64C150.441 112.308 150.836 115.712 151.013 119.437" stroke="#FF0000" stroke-width="3" stroke-linecap="round"/>
<path d="M150.442 108.64C144.377 110.488 140.153 110.762 140.153 118.238C140.153 121.774 145.224 120.688 147.012 119.437" stroke="#FF0000" stroke-width="3" stroke-linecap="round"/>
<path d="M145.869 121.237C144.247 123.248 143.762 128.783 144.122 122.736C144.176 121.839 144.154 120.936 144.154 120.037" stroke="#FF0000" stroke-width="3" stroke-linecap="round"/>
<path d="M223.609 92.4443C222.549 94.2981 227.547 89.6075 227.547 87.4456C227.547 87.1466 225.504 88.6984 225.324 88.8453C224.405 89.5951 223.609 89.9453 223.609 91.2446C223.609 94.3074 226.049 90.6036 225.578 90.7448C224.209 91.1552 224.581 95.3795 227.039 91.5112C228.788 88.7572 228.298 87.181 225.324 89.4451C224.336 90.1973 221.223 95.7538 224.18 95.4435C226.579 95.1918 229.325 91.3221 229.325 88.8453C229.325 87.041 225.669 91.3015 225.324 91.8445" stroke="#FF0000" stroke-width="3" stroke-linecap="round"/>
<path d="M225.323 81.0474C228.451 80.1964 233.544 80.0312 236.184 82.2471" stroke="#FF0000" stroke-width="3" stroke-linecap="round"/>
<path d="M241.328 82.8469C238.922 91.398 237.749 97.5398 231.357 103.242C229.633 104.779 227.06 106.013 225.069 107.107C222.009 108.789 219.56 109.248 216.177 109.84" stroke="#FF0000" stroke-width="3" stroke-linecap="round"/>
<path d="M244.186 84.6464C240.145 92.8978 236.333 102.985 228.594 108.24C227.078 109.269 224.856 110.939 223.037 111.039C219.168 111.253 216.259 108.669 212.748 107.44" stroke="#FF0000" stroke-width="3" stroke-linecap="round"/>
<path d="M212.176 101.442C212.992 103.583 213.838 105.048 215.034 106.841" stroke="#FF0000" stroke-width="3" stroke-linecap="round"/>
<path d="M241.9 85.2463C241.218 90.433 239.58 95.9577 235.739 99.6425C235.339 100.027 232.785 102.192 233.326 101.909C235.618 100.706 239.476 98.5197 240.757 96.0434C242.029 93.5844 244.608 89.385 243.488 86.446C242.279 83.2746 242.728 88.2855 242.344 90.045C241.499 93.9259 240.474 97.6098 239.169 101.309C238.791 102.38 238.116 103.062 237.327 103.841C236.214 104.941 238.404 101.638 238.597 101.309C240.881 97.4034 243 93.5949 244.758 89.4452C245.479 87.7432 245.329 86.0067 245.329 84.1799C245.329 84.1522 244.465 87.6408 244.186 88.812C243.094 93.3962 242.196 99.3844 238.438 102.342C236.753 103.668 232.792 106.841 230.817 106.841C229.684 106.841 232.351 105.086 233.04 104.141C234.252 102.478 235.491 100.901 236.469 99.076C237.692 96.7957 239.184 94.5068 240.185 92.1445C241.076 90.0401 240.937 87.552 241.614 85.2796C241.966 84.0985 242.081 82.6105 241.868 81.3806C241.684 80.3209 240.757 80.5136 240.757 79.2479" stroke="#FF0000" stroke-width="3" stroke-linecap="round"/>
<path d="M125.884 150.702C129.203 150.702 122.437 150.401 123.804 151.657C125.033 152.785 127.054 149.257 127.054 148.247C127.054 141.558 120.879 156.138 125.624 151.657C130.85 146.721 125.367 144.458 121.725 150.429C120.35 152.684 123.161 150.825 123.804 149.475C124.459 148.101 124.566 146.102 123.544 148.247" stroke="#FF0000" stroke-width="3" stroke-linecap="round"/>
<path d="M137.725 156.495C136.418 160.934 140.499 159.147 139.876 157.913C138.95 156.077 137.013 158.113 136.6 159.068C135.622 161.325 138.98 159.01 139.426 158.385C140.137 157.39 141.418 152.958 139.026 154.632C137.002 156.048 136.215 157.309 135.249 159.54C134.572 161.102 136.801 159.564 137.175 158.858C138.456 156.437 135.842 158.163 135.524 159.33C135.035 161.125 137.795 159.876 137.275 159.33" stroke="#FF0000" stroke-width="3" stroke-linecap="round"/>
<path d="M125.569 147.991C124.224 149.05 123.236 150.893 122.418 152.4C121.345 154.376 125.545 148.966 125.569 148.936" stroke="#FF0000" stroke-width="3" stroke-linecap="round"/>
<path d="M155.284 145.629C158.479 142.632 162.153 139.905 166.089 138.069C167.534 137.395 168.324 135.899 169.791 135.234C173.172 133.702 175.388 131.764 178.146 129.565C179.682 128.339 180.512 126.264 181.947 124.945C185.568 121.621 174.848 131.938 170.592 134.289C167.699 135.887 165.064 137.769 162.488 139.854C160.559 141.415 156.741 143.778 155.634 146.101C155.386 146.622 156.561 145.46 157.035 145.156C160.212 143.119 163.353 140.97 166.59 139.04C170.515 136.7 174.475 133.838 178.596 131.927C181.42 130.618 183.327 128.013 185.449 125.785" stroke="#FF0000" stroke-width="3" stroke-linecap="round"/>
<path d="M186.801 121.06C187.26 121.919 189.905 126.384 189.652 126.048C188.802 124.915 186.94 122.176 185.675 121.585C184.629 121.098 188.61 124.519 186.125 122.714C181.945 119.677 188.568 126.835 185.6 124.525C184.501 123.67 181.5 119.875 182.323 123.187C182.697 124.69 183.853 125.455 185 126.258" stroke="#FF0000" stroke-width="3" stroke-linecap="round"/>
<path d="M88.1093 23.4539C87.5546 21.693 87.1387 16.8842 84.5631 16.7555C84.3332 16.744 83.3393 17.0985 83.2234 17.293C82.6241 18.2994 81.0866 19.6057 81.0169 20.849C80.8383 24.0343 82.3392 27.8465 83.0658 30.8966C83.2469 31.6566 82.9209 32.6218 83.2234 33.3361C83.3489 33.6323 83.8213 34.1165 83.8539 33.5015C83.9098 32.445 83.8926 30.9589 82.4354 31.7235C81.4465 32.2424 80.6601 35.4098 82.3566 34.2458C83.6705 33.3442 83.2202 31.4799 81.5291 32.2404C80.1711 32.8511 79.3974 34.7046 79.6181 36.2098C79.7432 37.0629 80.7203 35.9433 80.8396 35.693C80.9901 35.3771 81.5832 33.1811 81.5685 33.1914C81.0747 33.5369 82.3268 34.2458 82.6127 34.2458C83.3832 34.2458 82.5179 34.1314 82.4551 34.4939C82.2653 35.5891 83.0885 36.8093 84.1888 36.8093C86.0616 36.8093 86.2079 32.3052 84.1888 33.8943C83.289 34.6024 82.0525 35.6253 81.7655 36.83C81.5464 37.7497 82.5537 37.7809 82.9673 37.2022C84.0843 35.6393 82.717 33.9644 81.9232 36.1064C81.1734 38.1295 83.4598 37.6757 83.4598 35.3828C83.4598 33.2071 79.5897 34.99 82.0808 34.99" stroke="#FF0000" stroke-width="3" stroke-linecap="round"/>
<path d="M142.011 4.84735C145.9 5.06213 149.783 5.38187 153.674 5.55027C154.038 5.56603 155.842 5.3261 156.353 5.63296C157.067 6.06092 157.26 8.77978 157.26 9.60238C157.26 11.7245 157.347 13.3287 156.472 15.2671C155.609 17.1791 153.931 17.4374 152.728 18.699C151.533 19.9539 153.794 22.1661 154.501 19.3605C154.822 18.0891 154.143 17.3352 152.827 18.0787C151.814 18.6509 152.999 18.4414 153.556 17.1277C155.191 13.2678 147.216 20.8475 151.94 18.9884C152.626 18.7185 152.305 23.1987 153.516 21.6967C153.984 21.1168 155.114 17.9493 153.713 17.872C152.667 17.8142 150.935 18.8209 150.561 19.8981C150.327 20.5754 151.231 20.6828 151.231 19.7327" stroke="#FF0000" stroke-width="3" stroke-linecap="round"/>
<path d="M140.238 6.33582C140.238 9.01235 140.332 11.5614 140.573 14.2126C140.626 14.8019 140.539 15.1154 140.317 15.6391C139.914 16.5891 139.274 16.9769 138.741 17.8719C138.535 18.217 136.627 19.8064 137.125 20.3942C137.932 21.3473 139.563 18.5977 139.529 17.8719C139.373 14.6068 132.171 18.6294 136.061 19.6499C137.339 19.9852 138.424 18.1895 138.465 17.045C138.502 15.9857 137.25 14.8396 136.692 16.0113" stroke="#FF0000" stroke-width="3" stroke-linecap="round"/>
<path d="M121.517 2C118.743 2.4034 116.484 2.45951 113.763 2.07874C113.17 1.99575 113.413 3.5038 113.413 3.8636C113.413 5.16484 113.189 6.56473 113.863 7.6958C114.8 9.26864 114.905 14.7565 117.265 14.7565C122.2 14.7565 117.256 13.5476 117.014 15.7014C116.614 19.2755 119.843 16.4416 119.165 14.389C117.669 9.8534 115.164 18.4457 117.69 16.3839C120.913 13.7535 116.289 13.1048 115.689 15.9376C115.174 18.3676 120.012 15.2275 119.165 13.3391C118.401 11.6346 115.796 19.9818 118.815 15.229" stroke="#FF0000" stroke-width="3" stroke-linecap="round"/>
</svg>
