<svg width="85" height="75" viewBox="0 0 85 75" fill="none" xmlns="http://www.w3.org/2000/svg">
<path d="M67.5759 73.0604C67.7214 70.8 68.2195 68.1798 68.6472 65.9316C69.0863 63.6235 69.1186 61.1487 69.1186 58.8028C69.1186 57.7514 68.645 55.0126 67.9616 54.2005C67.0837 53.1573 67.3166 51.3772 66.4189 50.1465" stroke="#DB0000" stroke-width="3" stroke-linecap="round"/>
<path d="M67.5759 49.7939C78.3797 47.3251 82.6166 37.4635 82.6166 28.2706C82.6166 25.2468 81.702 21.6418 80.6026 18.8504C79.9588 17.2157 78.4919 13.4843 76.4461 13.4843" stroke="#DB0000" stroke-width="3" stroke-linecap="round"/>
<path d="M76.0605 13.4843C76.0605 9.31276 74.1126 6.10697 72.9538 2.39944C72.5026 0.956177 68.3485 4.75047 67.7474 5.20002C65.8057 6.6522 64.1432 8.44428 63.3337 10.6641" stroke="#DB0000" stroke-width="3" stroke-linecap="round"/>
<path d="M32.991 73.0704C32.8455 70.81 32.3474 68.1898 31.9197 65.9416C31.4806 63.6335 31.4483 61.1587 31.4483 58.8128C31.4483 57.7614 31.9219 55.0226 32.6053 54.2105C33.4832 53.1674 33.2503 51.3872 34.1479 50.1565" stroke="#DB0000" stroke-width="3" stroke-linecap="round"/>
<path d="M32.991 49.8039C22.1872 47.3351 17.9503 37.4735 17.9503 28.2806C17.9503 25.2568 18.8649 21.6518 19.9643 18.8604C20.6081 17.2257 22.075 13.4943 24.1208 13.4943" stroke="#DB0000" stroke-width="3" stroke-linecap="round"/>
<path d="M24.5064 13.4943C24.5064 9.32277 26.4543 6.11698 27.6131 2.40945C28.0642 0.966187 32.2184 4.76048 32.8195 5.21003C34.7612 6.66221 36.4237 8.45429 37.2332 10.6741" stroke="#DB0000" stroke-width="3" stroke-linecap="round"/>
<path d="M63.9456 11.0737C57.7999 7.88216 51.5142 8.076 44.7366 8.076C42.1245 8.076 40.1554 8.56964 37.9456 9.78899" stroke="#DB0000" stroke-width="3" stroke-linecap="round"/>
<path d="M31.9616 61.824C32.1931 63.7823 32.9696 60.3366 32.9696 59.7715C32.9696 58.8768 32.9696 63.3503 32.9696 62.4556C32.9696 61.5472 32.8955 57.6477 31.6816 59.9294C31.1677 60.8952 30.9536 63.5993 30.9536 61.3504C30.9536 57.9595 30.9536 62.3003 30.9536 62.1924C30.9536 59.4091 31.4576 62.1879 31.4576 63.245C31.4576 68.2963 31.4576 60.9837 31.4576 63.7187C31.4576 66.5371 30.9536 62.501 30.9536 61.5872C30.9536 60.4878 30.0334 58.9109 31.4016 59.0874C31.5607 59.1079 36.9456 59.4103 36.9456 59.6926C36.9456 60.5052 32.2017 59.4558 31.4576 59.4558C28.4708 59.4558 31.5697 64.5929 32.9696 64.666C34.0933 64.7247 35.8363 63.5233 33.9496 63.745C32.5458 63.9099 31.3838 64.1923 29.9456 64.1923" stroke="white" stroke-width="3" stroke-linecap="round"/>
<path d="M1.94556 55.0737C3.48004 55.0737 4.88237 55.3517 6.29789 55.8689C7.55902 56.3298 8.31313 57 9.2858 57.8813C10.4162 58.9055 11.2551 60.1699 12.3601 61.2082C13.7776 62.5401 15.1594 63.8399 16.721 65.0138C18.1057 66.0546 19.8095 66.4017 21.3756 67.0829C23.0785 67.8237 25.333 68.0729 27.196 68.0729C28.8205 68.0729 30.4176 68.1133 31.9456 67.6347" stroke="#DB0000" stroke-width="3" stroke-linecap="round"/>
<path d="M1.94556 53.7116C3.3634 53.7116 4.75105 53.4622 6.14271 53.1832C7.35836 52.9395 8.49773 53.1719 9.71194 53.2197C10.2165 53.2395 10.9172 53.5973 11.3478 53.8756C11.9122 54.2404 12.6342 54.2952 13.2151 54.6591C14.4649 55.4421 15.7064 56.0943 16.7347 57.2282C18.8355 59.5447 21.0423 61.1875 23.9641 61.993C25.6176 62.4488 26.9221 60.845 28.4091 60.4351C29.3814 60.1671 30.2505 59.3977 30.9456 58.6312" stroke="#DB0000" stroke-width="3" stroke-linecap="round"/>
</svg>
