<svg width="79" height="79" viewBox="0 0 79 79" fill="none" xmlns="http://www.w3.org/2000/svg">
<path d="M2.43775 21.2624C2.43775 36.0659 2.43775 50.8694 2.43775 65.6729C2.43775 68.6111 0.2017 76.9092 5.83699 76.9092C8.57374 76.9092 16.0347 78.0662 16.0347 75.2446C16.0347 67.3718 18.7541 59.457 18.7541 51.4639C18.7541 43.537 18.7541 35.6101 18.7541 27.6832C18.7541 24.9545 20.1897 20.0628 17.0923 18.2898C14.4826 16.796 7.14058 16.9819 3.79745 16.9819" stroke="#DB0000" stroke-width="3" stroke-linecap="round"/>
<path d="M16.0347 3.07013C10.359 3.07013 2.43774 0.839712 2.43774 6.28053C2.43774 13.5568 8.62781 12.2245 16.0347 14.3065C21.9085 15.9575 22.8332 9.83429 22.8332 6.33998C22.8332 2.10172 17.5527 2 13.3153 2" stroke="#DB0000" stroke-width="3" stroke-linecap="round"/>
<path d="M22.5577 75.0603C22.5577 66.6468 25.5083 58.7942 26.5613 50.5067C27.3842 44.03 25.5448 37.684 28.2987 31.4227C29.917 27.7432 30.2257 26.2448 35.3993 24.7641C42.0767 22.8531 46.6214 21.5537 53.9063 21.5537C70.5084 21.5537 75.2502 35.3752 75.5859 46.9991C75.8427 55.8928 76.9456 64.5115 76.9456 73.4551C76.9456 75.9321 65.1649 75.7221 62.5932 74.8225C58.0731 73.2414 61.9889 67.02 61.9889 64.359C61.9889 59.4443 61.9889 54.5296 61.9889 49.6149C61.9889 45.3963 59.5489 42.414 59.2695 38.6758C59.0334 35.5159 51.4282 36.2546 49.1474 37.0706C44.8418 38.6109 42.6607 41.596 40.9136 44.621C35.562 53.8873 37.5144 64.8093 37.5144 75.0603" stroke="#DB0000" stroke-width="3" stroke-linecap="round"/>
<path d="M23.3458 76.7435C28.7915 76.7435 34.1872 75.5079 39.5686 75.5079" stroke="#DB0000" stroke-width="3" stroke-linecap="round"/>
</svg>
