<svg width="204" height="129" viewBox="0 0 204 129" fill="none" xmlns="http://www.w3.org/2000/svg">
<path d="M7.47236 40.118C7.73504 59.8097 11.2429 80.2477 14.4012 99.6823C15.4942 106.408 16.3863 112.951 17.9045 119.63C18.3564 121.617 18.4841 124.486 19.483 126.307C20.5446 128.242 39.3933 122.387 41.7031 121.862C79.095 113.362 116.487 104.862 153.879 96.3624C158.692 95.2681 191.528 90.6883 191.776 86.1707C192.353 75.6454 191.897 64.6742 190.754 54.1955C189.765 45.127 190.855 35.1603 188.842 26.3048C187.909 22.2008 188.03 17.9313 187.074 13.7266C186.686 12.0175 184.709 2.93569 182.979 2.64807C179.422 2.05646 174.166 4.40884 170.7 5.19678C164.663 6.569 158.627 7.94122 152.59 9.31344C131.651 14.0734 111.316 20.8794 90.4285 25.6276C66.2055 31.1339 41.9825 36.6403 17.7595 42.1467" stroke="#DB0000" stroke-width="3" stroke-linecap="round"/>
<path d="M179.613 9.72126C175.894 11.2074 173.603 15.7315 170.59 18.323C164.874 23.2402 158.68 27.7697 152.573 32.184C144.395 38.0948 133.644 42.6394 127.2 50.5073C123.517 55.0032 118.641 59.5169 114.491 63.7074C111.755 66.47 108.229 70.6551 104.847 72.511C101.086 74.5744 102.227 75.575 96.843 73.0567C82.2592 66.235 65.5606 66.0646 50.1838 60.9786C42.0137 58.2763 33.6177 56.0313 25.5513 53.4768C20.7653 51.9611 15.5298 52.0411 10.8704 50.2634" stroke="#DB0000" stroke-width="3" stroke-linecap="round"/>
</svg>
