<svg width="72" height="72" viewBox="0 0 72 72" fill="none" xmlns="http://www.w3.org/2000/svg">
<path d="M11.4821 4.97058C15.5483 6.19046 21.41 14.1594 24.4121 17.2816C29.3648 22.4325 34.842 27.1873 39.9556 32.2061C46.9578 39.0786 54.1525 45.1891 60.451 52.6328C62.0498 54.5222 73.1697 64.2511 69.1168 65.3564C65.5504 66.3291 55.1319 67.0258 52.4041 63.8433C41.1712 50.7383 27.4464 39.5046 15.196 27.2542C10.999 23.0572 6.60724 17.1644 2.19722 13.6364C0.497633 12.2768 10.309 6.5996 11.4821 6.20856" stroke="#DB0000" stroke-width="3" stroke-linecap="round"/>
<path d="M5.3985 60.09C6.61837 56.0237 14.5873 50.1621 17.7095 47.16C22.8604 42.2072 27.6152 36.73 32.634 31.6165C39.5066 24.6143 45.617 17.4195 53.0607 11.121C54.9502 9.52225 64.679 -1.59764 65.7843 2.45519C66.757 6.0216 67.4537 16.4401 64.2712 19.1679C51.1662 30.4008 39.9325 44.1256 27.6821 56.376C23.4851 60.573 17.5924 64.9648 14.0643 69.3748C12.7047 71.0744 7.02751 61.2631 6.63648 60.09" stroke="#DB0000" stroke-width="3" stroke-linecap="round"/>
</svg>
