<svg width="82" height="82" viewBox="0 0 82 82" fill="none" xmlns="http://www.w3.org/2000/svg">
<rect x="0.75" y="0.75" width="80.5" height="80.5" fill="white"/>
<rect x="0.75" y="0.75" width="80.5" height="80.5" stroke="black" stroke-width="0.5"/>
<path d="M57.3854 33.9376C56.7822 39.5921 57.1595 45.4144 57.1595 51.1027" stroke="#FF0000" stroke-width="4" stroke-linecap="round"/>
<path d="M69.1299 34.3893C69.5848 39.5068 69.8075 44.6079 69.8075 49.7475" stroke="#FF0000" stroke-width="4" stroke-linecap="round"/>
<path d="M51.9648 39.8098C57.1177 39.8098 62.2853 40.1227 67.4235 40.2615C69.8659 40.3275 72.4338 40.8165 74.7764 40.0357" stroke="#FF0000" stroke-width="4" stroke-linecap="round"/>
<path d="M49.48 48.1665C52.3688 46.8955 54.7573 46.8958 57.8869 46.7612C61.4779 46.6067 64.9924 46.786 68.5774 46.8114C71.3208 46.8308 74.0652 46.8114 76.8087 46.8114" stroke="#FF0000" stroke-width="4" stroke-linecap="round"/>
<path d="M61.0588 60.524C59.7564 62.1703 57.6623 64.353 55.6887 65.2482C53.8462 66.084 51.9508 66.454 49.9827 66.9866C46.0056 68.063 41.4718 67.9931 37.3891 67.6606C35.4476 67.5025 32.8731 66.929 31.0883 66.1907C29.3465 65.4701 27.9668 64.2253 26.6953 62.9374C25.8989 62.1307 25.3167 60.9662 24.6266 60.0497C24.0118 59.2331 23.2814 57.9625 23.0391 56.9745C22.4942 54.7527 21.1382 52.7961 20.8135 50.4483C20.5634 48.6397 19.6759 46.6309 19.1525 44.8746C17.364 38.8731 18.513 33.5665 21.9389 28.2824C22.8444 26.8857 23.423 25.35 24.489 24.0209C25.392 22.8952 26.1234 21.3673 27.3722 20.6175C30.4667 18.7593 33.0156 16.4583 36.6305 15.6056C39.8075 14.8563 43.168 14.1993 46.4421 14.4659C49.3074 14.6993 51.8197 15.5977 54.362 16.9238C55.3491 17.4387 55.7437 18.4016 56.5116 19.1257C57.341 19.9077 57.9127 20.416 58.451 21.4364C58.8811 22.2516 59.3933 23.0875 59.7332 23.9327" stroke="#FF0000" stroke-width="7" stroke-linecap="round"/>
</svg>
