<svg width="84" height="84" viewBox="0 0 84 84" fill="none" xmlns="http://www.w3.org/2000/svg">
<rect x="1" y="1" width="82" height="82" fill="white"/>
<rect x="1" y="1" width="82" height="82" stroke="black" stroke-width="2"/>
<path d="M58.3854 34.9376C57.7822 40.5921 58.1595 46.4144 58.1595 52.1027" stroke="#FF0000" stroke-width="4" stroke-linecap="round"/>
<path d="M70.1299 35.3893C70.5848 40.5068 70.8075 45.6079 70.8075 50.7475" stroke="#FF0000" stroke-width="4" stroke-linecap="round"/>
<path d="M52.9648 40.8098C58.1177 40.8098 63.2853 41.1227 68.4235 41.2615C70.8659 41.3275 73.4338 41.8165 75.7764 41.0357" stroke="#FF0000" stroke-width="4" stroke-linecap="round"/>
<path d="M50.48 49.1665C53.3688 47.8955 55.7573 47.8958 58.8869 47.7612C62.4779 47.6067 65.9924 47.786 69.5774 47.8114C72.3208 47.8308 75.0652 47.8114 77.8087 47.8114" stroke="#FF0000" stroke-width="4" stroke-linecap="round"/>
<path d="M62.0588 61.524C60.7564 63.1703 58.6623 65.353 56.6887 66.2482C54.8462 67.084 52.9508 67.454 50.9827 67.9866C47.0056 69.063 42.4718 68.9931 38.3891 68.6606C36.4476 68.5025 33.8731 67.929 32.0883 67.1907C30.3465 66.4701 28.9668 65.2253 27.6953 63.9374C26.8989 63.1307 26.3167 61.9662 25.6266 61.0497C25.0118 60.2331 24.2814 58.9625 24.0391 57.9745C23.4942 55.7527 22.1382 53.7961 21.8135 51.4483C21.5634 49.6397 20.6759 47.6309 20.1525 45.8746C18.364 39.8731 19.513 34.5665 22.9389 29.2824C23.8444 27.8857 24.423 26.35 25.489 25.0209C26.392 23.8952 27.1234 22.3673 28.3722 21.6175C31.4667 19.7593 34.0156 17.4583 37.6305 16.6056C40.8075 15.8563 44.168 15.1993 47.4421 15.4659C50.3074 15.6993 52.8197 16.5977 55.362 17.9238C56.3491 18.4387 56.7437 19.4016 57.5116 20.1257C58.341 20.9077 58.9127 21.416 59.451 22.4364C59.8811 23.2516 60.3933 24.0875 60.7332 24.9327" stroke="#FF0000" stroke-width="7" stroke-linecap="round"/>
</svg>
