<svg width="84" height="84" viewBox="0 0 84 84" fill="none" xmlns="http://www.w3.org/2000/svg">
<rect x="1" y="1" width="82" height="82" fill="white"/>
<rect x="1" y="1" width="82" height="82" stroke="black" stroke-width="2"/>
<rect x="7" y="42" width="50" height="50" rx="5" transform="rotate(-45 7 42)" fill="#db0000"/>
<path d="M31.458 19.14C33.4891 21.1711 35.5185 23.2037 37.5512 25.2332C38.2965 25.9774 39.1106 26.897 39.9585 27.5752C40.3243 27.8679 40.7547 28.0975 41.0871 28.4299C41.5218 28.8645 41.8757 29.4905 42.3788 29.8259" stroke="white" stroke-width="5" stroke-linecap="round"/>
<path d="M42.8481 31.3525C43.3021 31.3925 46.2198 31.8964 45.9665 31.3264C45.8147 30.9849 45.3836 30.4017 44.9618 30.4131C44.1525 30.4349 42.209 32.3207 43.7223 32.1614C44.0564 32.1263 45.3569 32.0509 45.425 31.5743C45.5001 31.0485 43.9084 29.9999 43.4418 30.2565C42.7176 30.6548 42.9439 32.4574 43.096 33.0878C43.3322 34.066 43.7906 34.3445 44.7792 34.2621C45.7525 34.181 46.8995 34.0044 47.3495 33.0226C47.6476 32.3722 47.7092 31.2569 47.193 30.7001C46.4964 29.9489 44.7656 29.6876 44.1399 30.661C43.6823 31.3727 43.3434 32.5268 44.5508 32.5268C45.6161 32.5268 45.3097 30.6215 45.1967 29.9434" stroke="white" stroke-width="5" stroke-linecap="round"/>
<path d="M47.7803 34.8754C61.6331 47.4795 40.9007 28.6142 51.8772 38.607C52.3753 39.0604 52.9394 39.6639 53.5342 40.0357C53.9287 40.2822 54.2614 40.5345 54.5911 40.8642C55.0163 41.2894 55.3865 41.7459 55.7915 42.182C56.3668 42.8015 56.946 43.4519 57.6442 43.9173" stroke="white" stroke-width="5" stroke-linecap="round"/>
<path d="M60.3451 44.387C59.917 44.225 56.9405 44.3537 57.8139 45.0524C58.4048 45.5252 58.8518 45.9135 59.634 45.9135C61.1866 45.9135 59.9283 41.7307 58.3488 44.1391C57.9634 44.7268 57.2387 45.9453 58.1662 46.3832C58.8767 46.7188 59.6911 46.3919 60.1429 45.8026C61.0162 44.6635 59.788 44.1812 58.8185 44.5044" stroke="white" stroke-width="5" stroke-linecap="round"/>
<path d="M43.4357 34.8754C43.2942 37.9652 43.0834 41.058 43.0834 44.1522C43.0834 45.1876 43.1444 46.2411 43.0247 47.2705C42.9505 47.9085 42.916 48.5183 42.7898 49.1494C42.6661 49.768 42.8338 50.4163 42.705 51.0282C42.3951 52.5004 42.4963 54.0391 42.4963 55.5427" stroke="white" stroke-width="5" stroke-linecap="round"/>
<path d="M42.6133 55.4252C42.5693 55.7556 42.3075 57.5733 43.2918 57.278C44.0135 57.0614 44.2954 55.7311 43.6702 55.3143C42.663 54.6429 40.2047 55.6996 39.8473 56.7169C39.4647 57.8058 42.1518 57.8667 42.4894 57.3041C42.6963 56.9592 43.0185 56.5667 42.7764 56.1363C42.2654 55.2278 41.7304 57.0762 41.7 57.3432C41.5413 58.7362 42.6986 57.3552 43.0113 56.9518C43.2761 56.61 43.5528 56.2249 43.5528 55.7775C43.5528 55.2868 43.488 55.8016 43.4353 56.0124" stroke="white" stroke-width="5" stroke-linecap="round"/>
<path d="M40.5895 56.538C40.7977 57.3507 41.8135 57.3274 42.5241 57.3474C42.7866 57.3548 43.2879 57.2758 42.8398 57.0924C42.3777 56.9034 41.93 57.3559 41.6823 57.6793C41.5685 57.8278 40.8657 58.7664 41.059 58.9825C41.3415 59.2982 41.9588 58.9216 42.1599 58.7235C42.3884 58.4982 42.7758 57.9739 42.5524 57.6388C42.4032 57.4149 42.0081 57.3569 41.7916 57.5012C41.5682 57.6501 41.2185 58.2157 41.3342 58.5049C41.4398 58.769 42.0878 58.2728 42.176 58.2135C42.5115 57.9885 42.8323 57.7439 42.7669 57.3029C42.6674 56.6309 41.6766 56.76 41.2492 56.9508C40.7474 57.1748 40.2981 57.5251 40.2981 58.1083C40.2981 58.4658 40.3757 58.8231 40.7514 58.942C41.5605 59.1982 41.417 58.2135 40.9538 58.2135C40.6025 58.2135 40.391 58.6506 40.0067 58.6506C39.8522 58.6506 39.7288 58.5678 39.5696 58.5778C39.2971 58.5948 40.0294 58.8785 40.2819 58.9825C41.1918 59.3572 42.2326 59.4676 43.111 58.9865C43.3955 58.8307 43.5762 58.5901 43.7949 58.3592C43.9362 58.2102 43.9253 57.9896 44.0702 57.8331C44.1942 57.6992 44.2227 57.4981 44.3697 57.3879C44.483 57.3029 44.3777 57.6712 44.3777 57.8128C44.3777 58.3287 43.9021 58.76 43.4469 58.942C43.0117 59.1161 42.3655 59.3435 41.8968 59.197C41.1111 58.9515 40.5209 58.4899 39.861 57.995" stroke="white" stroke-width="3" stroke-linecap="round"/>
</svg>
