<svg width="82" height="82" viewBox="0 0 82 82" fill="none" xmlns="http://www.w3.org/2000/svg">
<rect x="0.75" y="0.75" width="80.5" height="80.5" fill="white"/>
<rect x="0.75" y="0.75" width="80.5" height="80.5" stroke="black" stroke-width="0.5"/>
<rect x="6" y="41" width="50" height="50" rx="5" transform="rotate(-45 6 41)" fill="#FF0000"/>
<path d="M30.458 18.14C32.4891 20.1711 34.5185 22.2037 36.5512 24.2332C37.2965 24.9774 38.1106 25.897 38.9585 26.5752C39.3243 26.8679 39.7547 27.0975 40.0871 27.4299C40.5218 27.8645 40.8757 28.4905 41.3788 28.8259" stroke="white" stroke-width="5" stroke-linecap="round"/>
<path d="M41.8481 30.3525C42.3021 30.3925 45.2198 30.8964 44.9665 30.3264C44.8147 29.9849 44.3836 29.4017 43.9618 29.4131C43.1525 29.4349 41.209 31.3207 42.7223 31.1614C43.0564 31.1263 44.3569 31.0509 44.425 30.5743C44.5001 30.0485 42.9084 28.9999 42.4418 29.2565C41.7176 29.6548 41.9439 31.4574 42.096 32.0878C42.3322 33.066 42.7906 33.3445 43.7792 33.2621C44.7525 33.181 45.8995 33.0044 46.3495 32.0226C46.6476 31.3722 46.7092 30.2569 46.193 29.7001C45.4964 28.9489 43.7656 28.6876 43.1399 29.661C42.6823 30.3727 42.3434 31.5268 43.5508 31.5268C44.6161 31.5268 44.3097 29.6215 44.1967 28.9434" stroke="white" stroke-width="5" stroke-linecap="round"/>
<path d="M46.7803 33.8754C60.6331 46.4795 39.9007 27.6142 50.8772 37.607C51.3753 38.0604 51.9394 38.6639 52.5342 39.0357C52.9287 39.2822 53.2614 39.5345 53.5911 39.8642C54.0163 40.2894 54.3865 40.7459 54.7915 41.182C55.3668 41.8015 55.946 42.4519 56.6442 42.9173" stroke="white" stroke-width="5" stroke-linecap="round"/>
<path d="M59.3451 43.387C58.917 43.225 55.9405 43.3537 56.8139 44.0524C57.4048 44.5252 57.8518 44.9135 58.634 44.9135C60.1866 44.9135 58.9283 40.7307 57.3488 43.1391C56.9634 43.7268 56.2387 44.9453 57.1662 45.3832C57.8767 45.7188 58.6911 45.3919 59.1429 44.8026C60.0162 43.6635 58.788 43.1812 57.8185 43.5044" stroke="white" stroke-width="5" stroke-linecap="round"/>
<path d="M42.4357 33.8754C42.2942 36.9652 42.0834 40.058 42.0834 43.1522C42.0834 44.1876 42.1444 45.2411 42.0247 46.2705C41.9505 46.9085 41.916 47.5183 41.7898 48.1494C41.6661 48.768 41.8338 49.4163 41.705 50.0282C41.3951 51.5004 41.4963 53.0391 41.4963 54.5427" stroke="white" stroke-width="5" stroke-linecap="round"/>
<path d="M41.6133 54.4252C41.5693 54.7556 41.3075 56.5733 42.2918 56.278C43.0135 56.0614 43.2954 54.7311 42.6702 54.3143C41.663 53.6429 39.2047 54.6996 38.8473 55.7169C38.4647 56.8058 41.1518 56.8667 41.4894 56.3041C41.6963 55.9592 42.0185 55.5667 41.7764 55.1363C41.2654 54.2278 40.7304 56.0762 40.7 56.3432C40.5413 57.7362 41.6986 56.3552 42.0113 55.9518C42.2761 55.61 42.5528 55.2249 42.5528 54.7775C42.5528 54.2868 42.488 54.8016 42.4353 55.0124" stroke="white" stroke-width="5" stroke-linecap="round"/>
<path d="M39.5895 55.538C39.7977 56.3507 40.8135 56.3274 41.5241 56.3474C41.7866 56.3548 42.2879 56.2758 41.8398 56.0924C41.3777 55.9034 40.93 56.3559 40.6823 56.6793C40.5685 56.8278 39.8657 57.7664 40.059 57.9825C40.3415 58.2982 40.9588 57.9216 41.1599 57.7235C41.3884 57.4982 41.7758 56.9739 41.5524 56.6388C41.4032 56.4149 41.0081 56.3569 40.7916 56.5012C40.5682 56.6501 40.2185 57.2157 40.3342 57.5049C40.4398 57.769 41.0878 57.2728 41.176 57.2135C41.5115 56.9885 41.8323 56.7439 41.7669 56.3029C41.6674 55.6309 40.6766 55.76 40.2492 55.9508C39.7474 56.1748 39.2981 56.5251 39.2981 57.1083C39.2981 57.4658 39.3757 57.8231 39.7514 57.942C40.5605 58.1982 40.417 57.2135 39.9538 57.2135C39.6025 57.2135 39.391 57.6506 39.0067 57.6506C38.8522 57.6506 38.7288 57.5678 38.5696 57.5778C38.2971 57.5948 39.0294 57.8785 39.2819 57.9825C40.1918 58.3572 41.2326 58.4676 42.111 57.9865C42.3955 57.8307 42.5762 57.5901 42.7949 57.3592C42.9362 57.2102 42.9253 56.9896 43.0702 56.8331C43.1942 56.6992 43.2227 56.4981 43.3697 56.3879C43.483 56.3029 43.3777 56.6712 43.3777 56.8128C43.3777 57.3287 42.9021 57.76 42.4469 57.942C42.0117 58.1161 41.3655 58.3435 40.8968 58.197C40.1111 57.9515 39.5209 57.4899 38.861 56.995" stroke="white" stroke-width="3" stroke-linecap="round"/>
</svg>
