<svg width="84" height="84" viewBox="0 0 84 84" fill="none" xmlns="http://www.w3.org/2000/svg">
<g clip-path="url(#clip0_85_997)">
<rect x="2" y="2" width="80" height="80" fill="white"/>
<path d="M49.0302 27.9137C43.8138 20.4638 37.2727 12.2351 28.373 9.18956C26.6607 8.60359 25.0748 8.19097 23.2587 8.48829C21.2611 8.81534 17.2503 10.8872 17.3214 13.2998C17.551 21.0807 24.3293 28.6756 28.5487 34.7014C32.2421 39.9761 35.9355 45.2509 39.629 50.5257C42.4266 54.5212 46.0307 57.7421 48.9676 61.5623C51.0379 64.2553 55.6402 65.5025 58.9017 65.0149C62.2273 64.5177 63.752 60.1627 63.9708 57.3021C64.1058 55.5359 63.4865 52.5618 62.5709 51.0856C61.6027 49.5247 61.4595 47.198 60.4938 45.8189C59.1314 43.8731 58.3855 42.0394 57.4217 39.9406C56.4114 37.7404 54.4412 35.6413 53.0544 33.6607C51.1261 30.9069 49.1979 28.1531 47.2697 25.3993" stroke="#FF0000" stroke-width="3" stroke-linecap="round"/>
<path d="M32.115 31.9897C26.8986 39.4395 21.4033 48.4005 21.5853 57.8051C21.6204 59.6146 21.775 61.246 22.6756 62.8509C23.6661 64.6162 26.9848 67.6764 29.2276 66.7844C36.4607 63.9075 41.2792 54.9403 45.4985 48.9145C49.192 43.6397 52.8854 38.365 56.5788 33.0902C59.3765 29.0947 61.1705 24.6064 63.7559 20.54C65.5784 17.6735 65.1763 12.9222 63.6025 10.0241C61.9979 7.06921 57.3841 7.12592 54.6212 7.89872C52.9153 8.37585 50.3323 9.97505 49.2583 11.3404C48.1228 12.784 45.9854 13.7143 45.0197 15.0934C43.6572 17.0392 42.1892 18.3673 40.5466 19.9908C38.8246 21.6927 37.526 24.262 36.1392 26.2426C34.2109 28.9964 32.2827 31.7502 30.3545 34.504" stroke="#FF0000" stroke-width="3" stroke-linecap="round"/>
<path d="M39.5121 25.5489C30.4175 25.5489 19.9251 26.1872 12.3257 31.7306C10.8635 32.7972 9.61592 33.8596 8.8178 35.5178C7.93991 37.3418 7.33663 41.8156 9.35373 43.1411C15.8591 47.416 25.9684 46.2197 33.3245 46.2197C39.7638 46.2197 46.2031 46.2197 52.6424 46.2197C57.52 46.2197 62.2257 45.1149 67.0395 44.9003C70.433 44.749 74.0944 41.6944 75.5657 38.7431C77.0659 35.7338 74.373 31.9869 72.1552 30.1669C70.786 29.0432 67.9944 27.8446 66.26 27.748C64.4261 27.6458 62.4381 26.4285 60.7545 26.4285C58.3791 26.4285 56.4492 25.9877 54.1771 25.5734C51.7953 25.139 48.9458 25.5489 46.5279 25.5489C43.1662 25.5489 39.8044 25.5489 36.4427 25.5489" stroke="#FF0000" stroke-width="3" stroke-linecap="round"/>
<path d="M40.9187 34.1324C39.1427 35.9084 40.0511 38.123 42.64 37.5477C46.3696 36.7189 42.067 34.4696 40.6728 34.1598C38.6816 33.7173 38.6116 37.2387 41.4105 37.0832C42.6748 37.013 45.9367 32.7244 44.252 32.657C42.5768 32.59 39.9351 32.6455 39.9351 34.8701C39.9351 36.619 42.6219 36.4042 44.1154 36.0723C45.3349 35.8013 45.655 33.9333 45.2903 32.9303C44.8875 31.8228 42.7791 32.1652 41.9023 32.1652C39.5262 32.1652 37.7627 35.116 40.9187 35.116" stroke="#FF0000" stroke-width="3" stroke-linecap="round"/>
<path d="M8.47656 70.5984C8.11337 73.2563 7.47656 75.9349 7.47656 78.5984" stroke="#FF0000" stroke-width="3" stroke-linecap="round"/>
<path d="M9.47656 69.5984C10.7524 69.8728 12.0689 70.0425 13.1689 70.6153C13.7873 70.9374 14.278 71.6309 14.6432 72.1125C15.2542 72.9183 15.6443 74.2521 14.6432 75.0033C14.2383 75.3071 13.4831 75.6762 12.8868 75.7001C12.5419 75.7139 11.6945 75.7307 11.4381 75.9543C10.8399 76.4761 17.9129 79.0464 18.4766 79.5984" stroke="#FF0000" stroke-width="3" stroke-linecap="round"/>
<path d="M33.0181 80.0931C32.1814 80.6142 30.8454 80.6617 29.8594 80.547C28.7874 80.4223 27.6621 80.3704 26.613 80.1335C25.4427 79.8692 24.6603 79.1766 24.0685 78.2977C23.002 76.7142 23.2764 73.6278 25.718 73.0124C26.64 72.7801 27.6661 72.7172 28.6193 72.6695C29.8531 72.6077 31.4632 72.4635 32.6145 72.9216C33.4601 73.2581 33.5745 74.0123 33.4159 74.7372C33.1444 75.9775 30.6158 76.1589 29.5435 76.1846C27.8536 76.2251 26.176 76.0989 24.4897 76.0989" stroke="#FF0000" stroke-width="3" stroke-linecap="round"/>
<path d="M40.4766 71.5984C40.2047 73.4579 39.7623 75.417 39.7623 77.3257C39.7623 77.6391 39.7313 77.9206 39.6908 78.2297C39.6299 78.6951 39.5663 79.1416 39.4766 79.5984" stroke="#FF0000" stroke-width="3" stroke-linecap="round"/>
<path d="M42.4766 71.5984C44.5224 73.3697 46.3356 75.2919 47.9453 77.3067C48.5087 78.0119 48.7231 79.0243 49.4766 79.5984" stroke="#FF0000" stroke-width="3" stroke-linecap="round"/>
<path d="M40.4766 75.5984C42.4937 75.5984 44.4693 75.5984 46.4766 75.5984" stroke="#FF0000" stroke-width="3" stroke-linecap="round"/>
<path d="M58.6221 73.633C56.7054 73.4767 54.8906 73.8344 53.6519 75.0119C52.9368 75.6916 51.7256 77.2251 53.1109 77.9031C53.9205 78.2992 54.9469 78.6484 55.9341 78.5925C57.008 78.5317 58.0798 78.2866 59.1687 78.2866C59.66 78.2866 60.133 78.1314 60.6113 78.1314C61.2518 78.1314 61.8866 78.0921 62.4766 77.8988" stroke="#FF0000" stroke-width="3" stroke-linecap="round"/>
<path d="M70.4766 69.5984C70.4766 71.1001 70.4766 72.61 70.4766 74.1123C70.4766 74.9385 70.4766 75.7213 70.4766 76.536C70.4766 77.4918 70.4766 80.3625 70.4766 79.4059" stroke="#FF0000" stroke-width="3" stroke-linecap="round"/>
<path d="M65.4766 69.5984C68.355 69.8204 71.2006 70.2651 74.0815 70.2651C74.9197 70.2651 75.6597 70.5984 76.4766 70.5984" stroke="#FF0000" stroke-width="3" stroke-linecap="round"/>
</g>
<rect x="1" y="1" width="82" height="82" stroke="black" stroke-width="2"/>
<defs>
<clipPath id="clip0_85_997">
<rect x="2" y="2" width="80" height="80" fill="white"/>
</clipPath>
</defs>
</svg>
