<svg width="82" height="82" viewBox="0 0 82 82" fill="none" xmlns="http://www.w3.org/2000/svg">
<g clip-path="url(#clip0_85_997)">
<rect x="1" y="1" width="80" height="80" fill="white"/>
<path d="M48.0302 26.9137C42.8138 19.4638 36.2727 11.2351 27.373 8.18956C25.6607 7.60359 24.0748 7.19097 22.2587 7.48829C20.2611 7.81534 16.2503 9.88724 16.3214 12.2998C16.551 20.0807 23.3293 27.6756 27.5487 33.7014C31.2421 38.9761 34.9355 44.2509 38.629 49.5257C41.4266 53.5212 45.0307 56.7421 47.9676 60.5623C50.0379 63.2553 54.6402 64.5025 57.9017 64.0149C61.2273 63.5177 62.752 59.1627 62.9708 56.3021C63.1058 54.5359 62.4865 51.5618 61.5709 50.0856C60.6027 48.5247 60.4595 46.198 59.4938 44.8189C58.1314 42.8731 57.3855 41.0394 56.4217 38.9406C55.4114 36.7404 53.4412 34.6413 52.0544 32.6607C50.1261 29.9069 48.1979 27.1531 46.2697 24.3993" stroke="#FF0000" stroke-width="3" stroke-linecap="round"/>
<path d="M31.115 30.9897C25.8986 38.4395 20.4033 47.4005 20.5853 56.8051C20.6204 58.6146 20.775 60.246 21.6756 61.8509C22.6661 63.6162 25.9848 66.6764 28.2276 65.7844C35.4607 62.9075 40.2792 53.9403 44.4985 47.9145C48.192 42.6397 51.8854 37.365 55.5788 32.0902C58.3765 28.0947 60.1705 23.6064 62.7559 19.54C64.5784 16.6735 64.1763 11.9222 62.6025 9.02412C60.9979 6.06921 56.3841 6.12592 53.6212 6.89872C51.9153 7.37585 49.3323 8.97505 48.2583 10.3404C47.1228 11.784 44.9854 12.7143 44.0197 14.0934C42.6572 16.0392 41.1892 17.3673 39.5466 18.9908C37.8246 20.6927 36.526 23.262 35.1392 25.2426C33.2109 27.9964 31.2827 30.7502 29.3545 33.504" stroke="#FF0000" stroke-width="3" stroke-linecap="round"/>
<path d="M38.5121 24.5489C29.4175 24.5489 18.9251 25.1872 11.3257 30.7306C9.86355 31.7972 8.61592 32.8596 7.8178 34.5178C6.93991 36.3418 6.33663 40.8156 8.35373 42.1411C14.8591 46.416 24.9684 45.2197 32.3245 45.2197C38.7638 45.2197 45.2031 45.2197 51.6424 45.2197C56.52 45.2197 61.2257 44.1149 66.0395 43.9003C69.433 43.749 73.0944 40.6944 74.5657 37.7431C76.0659 34.7338 73.373 30.9869 71.1552 29.1669C69.786 28.0432 66.9944 26.8446 65.26 26.748C63.4261 26.6458 61.4381 25.4285 59.7545 25.4285C57.3791 25.4285 55.4492 24.9877 53.1771 24.5734C50.7953 24.139 47.9458 24.5489 45.5279 24.5489C42.1662 24.5489 38.8044 24.5489 35.4427 24.5489" stroke="#FF0000" stroke-width="3" stroke-linecap="round"/>
<path d="M39.9187 33.1324C38.1427 34.9084 39.0511 37.123 41.64 36.5477C45.3696 35.7189 41.067 33.4696 39.6728 33.1598C37.6816 32.7173 37.6116 36.2387 40.4105 36.0832C41.6748 36.013 44.9367 31.7244 43.252 31.657C41.5768 31.59 38.9351 31.6455 38.9351 33.8701C38.9351 35.619 41.6219 35.4042 43.1154 35.0723C44.3349 34.8013 44.655 32.9333 44.2903 31.9303C43.8875 30.8228 41.7791 31.1652 40.9023 31.1652C38.5262 31.1652 36.7627 34.116 39.9187 34.116" stroke="#FF0000" stroke-width="3" stroke-linecap="round"/>
<path d="M7.47656 69.5984C7.11337 72.2563 6.47656 74.9349 6.47656 77.5984" stroke="#FF0000" stroke-width="3" stroke-linecap="round"/>
<path d="M8.47656 68.5984C9.75238 68.8728 11.0689 69.0425 12.1689 69.6153C12.7873 69.9374 13.278 70.6309 13.6432 71.1125C14.2542 71.9183 14.6443 73.2521 13.6432 74.0033C13.2383 74.3071 12.4831 74.6762 11.8868 74.7001C11.5419 74.7139 10.6945 74.7307 10.4381 74.9543C9.8399 75.4761 16.9129 78.0464 17.4766 78.5984" stroke="#FF0000" stroke-width="3" stroke-linecap="round"/>
<path d="M32.0181 79.0931C31.1814 79.6142 29.8454 79.6617 28.8594 79.547C27.7874 79.4223 26.6621 79.3704 25.613 79.1335C24.4427 78.8692 23.6603 78.1766 23.0685 77.2977C22.002 75.7142 22.2764 72.6278 24.718 72.0124C25.64 71.7801 26.6661 71.7172 27.6193 71.6695C28.8531 71.6077 30.4632 71.4635 31.6145 71.9216C32.4601 72.2581 32.5745 73.0123 32.4159 73.7372C32.1444 74.9775 29.6158 75.1589 28.5435 75.1846C26.8536 75.2251 25.176 75.0989 23.4897 75.0989" stroke="#FF0000" stroke-width="3" stroke-linecap="round"/>
<path d="M39.4766 70.5984C39.2047 72.4579 38.7623 74.417 38.7623 76.3257C38.7623 76.6391 38.7313 76.9206 38.6908 77.2297C38.6299 77.6951 38.5663 78.1416 38.4766 78.5984" stroke="#FF0000" stroke-width="3" stroke-linecap="round"/>
<path d="M41.4766 70.5984C43.5224 72.3697 45.3356 74.2919 46.9453 76.3067C47.5087 77.0119 47.7231 78.0243 48.4766 78.5984" stroke="#FF0000" stroke-width="3" stroke-linecap="round"/>
<path d="M39.4766 74.5984C41.4937 74.5984 43.4693 74.5984 45.4766 74.5984" stroke="#FF0000" stroke-width="3" stroke-linecap="round"/>
<path d="M57.6221 72.633C55.7054 72.4767 53.8906 72.8344 52.6519 74.0119C51.9368 74.6916 50.7256 76.2251 52.1109 76.9031C52.9205 77.2992 53.9469 77.6484 54.9341 77.5925C56.008 77.5317 57.0798 77.2866 58.1687 77.2866C58.66 77.2866 59.133 77.1314 59.6113 77.1314C60.2518 77.1314 60.8866 77.0921 61.4766 76.8988" stroke="#FF0000" stroke-width="3" stroke-linecap="round"/>
<path d="M69.4766 68.5984C69.4766 70.1001 69.4766 71.61 69.4766 73.1123C69.4766 73.9385 69.4766 74.7213 69.4766 75.536C69.4766 76.4918 69.4766 79.3625 69.4766 78.4059" stroke="#FF0000" stroke-width="3" stroke-linecap="round"/>
<path d="M64.4766 68.5984C67.355 68.8204 70.2006 69.2651 73.0815 69.2651C73.9197 69.2651 74.6597 69.5984 75.4766 69.5984" stroke="#FF0000" stroke-width="3" stroke-linecap="round"/>
</g>
<rect x="0.75" y="0.75" width="80.5" height="80.5" stroke="black" stroke-width="0.5"/>
<defs>
<clipPath id="clip0_85_997">
<rect x="1" y="1" width="80" height="80" fill="white"/>
</clipPath>
</defs>
</svg>
