<svg width="84" height="84" viewBox="0 0 84 84" fill="none" xmlns="http://www.w3.org/2000/svg">
<rect x="1" y="1" width="82" height="82" fill="white"/>
<rect x="1" y="1" width="82" height="82" stroke="black" stroke-width="2"/>
<path d="M63.2936 44.4324C62.1983 45.2121 61.231 46.2494 60.0188 46.8487C58.9273 47.3883 57.2032 47.4063 56.0141 47.4063C52.9993 47.4063 49.5507 47.4259 46.8211 45.8781C44.7533 44.7055 42.5954 43.8645 40.4688 42.8525C39.3394 42.3151 38.2381 41.5866 37.0165 41.2314C36.1918 40.9915 35.4322 40.534 34.6196 40.2504C33.7215 39.937 32.7329 39.8305 31.8676 39.5069C29.9569 38.7926 27.6822 39.0423 25.6534 39.0423C22.8958 39.0423 19.9016 40.9748 17.6638 42.4808C15.8047 43.7319 14.2868 45.3849 13.2645 47.4063C12.6302 48.6607 11.8047 49.7886 11.8047 51.3095" stroke="#FF0000" stroke-width="4" stroke-linecap="round"/>
<path d="M57.4346 49.4508C55.1943 49.8984 52.7847 50.9733 50.4707 50.7106C47.8043 50.4079 44.9782 49.6595 42.4811 48.6248C40.6724 47.8753 38.7022 46.9645 37.056 45.8781C36.1793 45.2995 35.4791 44.1972 34.6295 43.689C34.2576 43.4665 35.6012 45.176 35.8822 45.5476C36.7036 46.6337 38.3056 47.8229 39.591 48.2324C41.7709 48.9269 44.2901 50.2583 46.6041 49.4508" stroke="#FF0000" stroke-width="7" stroke-linecap="round"/>
<path d="M56.7249 51.8671C53.4052 52.5073 50.6573 53.5554 47.3543 52.7964C44.5048 52.1416 41.826 50.9676 39.1082 49.8639C35.5987 48.4387 32.0739 46.848 29.4614 43.8645C28.8534 43.1701 28.2349 42.517 27.5182 41.9335C27.2463 41.7121 29.0782 42.063 29.4713 42.2846C30.1093 42.6443 31.0826 42.3047 31.7892 42.5737C32.1384 42.7066 32.4561 42.7596 32.8249 42.7596C33.4523 42.7596 31.6057 42.4369 31.0199 42.202C29.116 41.4387 27.4369 41.2688 25.654 42.202C24.9864 42.5514 24.4703 43.1572 23.8785 43.5444C23.497 43.794 23.3902 44.6124 23.0697 44.8041C22.7019 45.0241 22.2677 46.3663 22.4778 45.9813C23.0935 44.8535 24.5824 44.8041 25.654 44.8041C27.2017 44.8041 28.2488 45.2027 29.6389 45.8264C30.4237 46.1785 31.0691 47.0113 31.8682 47.2204" stroke="#FF0000" stroke-width="7" stroke-linecap="round"/>
<path d="M22.635 43.1313C21.1611 43.1313 19.1635 44.308 18.0977 45.3618C17.466 45.9862 18.2318 45.5105 18.5613 45.1656C19.3237 44.3674 20.4702 43.6295 21.5796 43.5134C22.5185 43.4151 25.3541 43.5031 24.4105 43.5031C23.3527 43.5031 22.1839 44.0339 21.3034 44.6286C19.9407 45.549 18.3068 46.5261 18.0188 48.3356" stroke="#FF0000" stroke-width="7" stroke-linecap="round"/>
<path d="M64.1815 44.99C62.8886 46.9805 61.6363 48.6108 59.9302 50.1736C59.3571 50.6986 57.7923 52.0529 57.0796 52.0529" stroke="#FF0000" stroke-width="5" stroke-linecap="round"/>
<path d="M38.0824 50.752C36.257 50.5454 34.8071 49.7967 33.0321 49.451C31.3463 49.1226 29.7806 48.8934 28.0608 48.8934C26.1475 48.8934 24.2129 48.7075 22.2806 48.7075C19.7383 48.7075 17.7506 49.9437 15.5338 51.1651C14.4269 51.775 12.7687 52.5422 11.904 53.5297C11.5581 53.9247 11.1455 54.3134 10.7795 54.6965C10.0232 55.4883 11.2611 53.6625 11.4108 53.3955C12.0338 52.2842 12.7952 50.831 13.6696 49.9156C14.2901 49.266 14.882 47.8817 15.7114 47.5923" stroke="#FF0000" stroke-width="5" stroke-linecap="round"/>
<path d="M12.3378 49.079C11.9883 49.9277 11.7749 50.8547 11.4106 51.6811C11.1959 52.168 10.8068 52.8157 10.7497 53.3539C10.656 54.2369 10.5348 55.434 10.1677 56.2452C10.0064 56.6018 9.95662 58.5157 10.0395 57.0403C10.1374 55.2982 10.528 53.2398 11.2725 51.6811" stroke="#FF0000" stroke-width="5" stroke-linecap="round"/>
<path d="M75.2936 16.4324C74.1983 17.2121 73.231 18.2494 72.0188 18.8487C70.9273 19.3883 69.2032 19.4063 68.0141 19.4063C64.9993 19.4063 61.5507 19.4259 58.8211 17.8781C56.7533 16.7055 54.5954 15.8645 52.4688 14.8525C51.3394 14.3151 50.2381 13.5866 49.0165 13.2314C48.1918 12.9915 47.4322 12.534 46.6196 12.2504C45.7215 11.937 44.7329 11.8305 43.8676 11.5069C41.9569 10.7926 39.6822 11.0423 37.6534 11.0423C34.8958 11.0423 31.9016 12.9748 29.6638 14.4808C27.8047 15.7319 26.2868 17.3849 25.2645 19.4063C24.6302 20.6607 23.8047 21.7886 23.8047 23.3095" stroke="#FF0000" stroke-width="4" stroke-linecap="round"/>
<path d="M69.4346 21.4508C67.1943 21.8984 64.7847 22.9733 62.4707 22.7106C59.8043 22.4079 56.9782 21.6595 54.4811 20.6248C52.6724 19.8753 50.7022 18.9645 49.056 17.8781C48.1793 17.2995 47.4791 16.1972 46.6295 15.689C46.2576 15.4665 47.6012 17.176 47.8822 17.5476C48.7036 18.6337 50.3056 19.8229 51.591 20.2324C53.7709 20.9269 56.2901 22.2583 58.6041 21.4508" stroke="#FF0000" stroke-width="7" stroke-linecap="round"/>
<path d="M68.7249 23.8671C65.4052 24.5073 62.6573 25.5554 59.3543 24.7964C56.5048 24.1416 53.826 22.9676 51.1082 21.8639C47.5987 20.4387 44.0739 18.848 41.4614 15.8645C40.8534 15.1701 40.2349 14.517 39.5182 13.9335C39.2463 13.7121 41.0782 14.063 41.4713 14.2846C42.1093 14.6443 43.0826 14.3047 43.7892 14.5737C44.1384 14.7066 44.4561 14.7596 44.8249 14.7596C45.4523 14.7596 43.6057 14.4369 43.0199 14.202C41.116 13.4387 39.4369 13.2688 37.654 14.202C36.9864 14.5514 36.4703 15.1572 35.8785 15.5444C35.497 15.794 35.3902 16.6124 35.0697 16.8041C34.7019 17.0241 34.2677 18.3663 34.4778 17.9813C35.0935 16.8535 36.5824 16.8041 37.654 16.8041C39.2017 16.8041 40.2488 17.2027 41.6389 17.8264C42.4237 18.1785 43.0691 19.0113 43.8682 19.2204" stroke="#FF0000" stroke-width="7" stroke-linecap="round"/>
<path d="M34.635 15.1313C33.1611 15.1313 31.1635 16.308 30.0977 17.3618C29.466 17.9862 30.2318 17.5105 30.5613 17.1656C31.3237 16.3674 32.4702 15.6295 33.5796 15.5134C34.5185 15.4151 37.3541 15.5031 36.4105 15.5031C35.3527 15.5031 34.1839 16.0339 33.3034 16.6286C31.9407 17.549 30.3068 18.5261 30.0188 20.3356" stroke="#FF0000" stroke-width="7" stroke-linecap="round"/>
<path d="M76.1815 16.99C74.8886 18.9805 73.6363 20.6108 71.9302 22.1736C71.3571 22.6986 69.7923 24.0529 69.0796 24.0529" stroke="#FF0000" stroke-width="5" stroke-linecap="round"/>
<path d="M50.0824 22.752C48.257 22.5454 46.8071 21.7967 45.0321 21.451C43.3463 21.1226 41.7806 20.8934 40.0608 20.8934C38.1475 20.8934 36.2129 20.7075 34.2806 20.7075C31.7383 20.7075 29.7506 21.9437 27.5338 23.1651C26.4269 23.775 24.7687 24.5422 23.904 25.5297C23.5581 25.9247 23.1455 26.3134 22.7795 26.6965C22.0232 27.4883 23.2611 25.6625 23.4108 25.3955C24.0338 24.2842 24.7952 22.831 25.6696 21.9156C26.2901 21.266 26.882 19.8817 27.7114 19.5923" stroke="#FF0000" stroke-width="5" stroke-linecap="round"/>
<path d="M24.3378 21.079C23.9883 21.9277 23.7749 22.8547 23.4106 23.6811C23.1959 24.168 22.8068 24.8157 22.7497 25.3539C22.656 26.2369 22.5348 27.434 22.1677 28.2452C22.0064 28.6018 21.9566 30.5157 22.0395 29.0403C22.1374 27.2982 22.528 25.2398 23.2725 23.6811" stroke="#FF0000" stroke-width="5" stroke-linecap="round"/>
<path d="M28 69V78" stroke="#FF0000" stroke-width="3" stroke-linecap="round"/>
<path d="M54 69V78" stroke="#FF0000" stroke-width="3" stroke-linecap="round"/>
<path d="M33.9941 67C33.3344 68.805 33.1917 70.7067 33.1917 72.6107C33.1917 73.8122 33.058 74.9968 33.058 76.1886C33.058 76.2934 32.887 78.8826 33.1323 78.9465C34.0168 79.1771 35.0898 78.5874 36 78.5874" stroke="#FF0000" stroke-width="3" stroke-linecap="round"/>
<path d="M41.3729 68.4364C41.3112 70.9426 41.1727 73.4246 41.0047 75.9178C40.9696 76.4385 41.1386 76.9071 41.2201 77.4141C41.3099 77.973 41.3798 78.5793 42.0606 78.7241C42.5236 78.8226 43.0271 78.1754 43.2484 77.8929C44.0932 76.8145 44.3541 75.4757 44.7488 74.2087C44.9248 73.6439 44.9989 73.1484 44.9989 72.5661C44.9989 71.8301 45.0328 74.0449 45.1795 74.7673C45.4405 76.0522 45.5033 77.6593 46.3118 78.7773C46.6579 79.256 46.8776 78.874 47.0272 78.4648C47.4745 77.2413 47.7346 76.0707 47.8469 74.7806C48.0208 72.7827 48.3829 70.7803 48.8055 68.8155C48.9289 68.2419 48.7293 67.5184 49 67" stroke="#FF0000" stroke-width="3" stroke-linecap="round"/>
<path d="M72 67C71.5329 71.0768 70.2995 74.9767 71.5311 79" stroke="#FF0000" stroke-width="3" stroke-linecap="round"/>
<path d="M73.2484 67C75.0968 67.7584 76.2633 68.767 77.3186 70.3836C78.1696 71.6872 78.1497 73.6435 77.6635 75.0538C77.1832 76.4472 76.1779 76.7757 74.8213 77.3053C74.2926 77.5116 73.5623 78 73 78" stroke="#FF0000" stroke-width="3" stroke-linecap="round"/>
<path d="M58.1947 77.5916C58.1214 76.4497 57.9251 75.3516 58.0304 74.2049C58.1165 73.2659 58.3173 72.351 58.7559 71.5131C59.1621 70.737 59.6091 69.998 60.207 69.3517C60.6551 68.8674 61.2894 68.2844 61.9302 68.0952C62.2278 68.0073 62.4619 67.9344 62.7464 68.0952C63.1388 68.3169 63.5746 68.5896 63.9084 68.895C64.3107 69.2632 64.5723 69.8916 64.7643 70.3927C64.9581 70.8984 65.1818 71.335 65.3113 71.8733C65.4603 72.4926 65.513 73.1333 65.5919 73.7652C65.6905 74.5551 65.7959 75.3095 65.7959 76.1081C65.7959 76.7372 65.8966 77.379 66 78" stroke="#FF0000" stroke-width="3" stroke-linecap="round"/>
<path d="M6 67C8.96529 67 12.0463 67 15 67" stroke="#FF0000" stroke-width="3" stroke-linecap="round"/>
<path d="M10 68C10 71.005 10 73.996 10 77" stroke="#FF0000" stroke-width="3" stroke-linecap="round"/>
<path d="M16.1631 78.1068C16.553 75.539 17.0416 72.535 18.9427 70.5881C19.4556 70.0627 20.0932 69.7611 20.6841 69.3516C21.3342 68.9011 21.5761 69.1088 22.032 69.6775C23.8313 71.9218 22.9446 75.5221 22.9446 78.1068" stroke="#FF0000" stroke-width="3" stroke-linecap="round"/>
<path d="M17.1631 75.1068C18.7162 75.1068 20.1236 75.1068 21.6464 75.1068C22.1694 75.1068 22.6499 75.1068 23.1631 75.1068" stroke="#FF0000" stroke-width="3" stroke-linecap="round"/>
</svg>
