<svg width="82" height="82" viewBox="0 0 82 82" fill="none" xmlns="http://www.w3.org/2000/svg">
<rect x="0.75" y="0.75" width="80.5" height="80.5" fill="white"/>
<rect x="0.75" y="0.75" width="80.5" height="80.5" stroke="black" stroke-width="0.5"/>
<path d="M62.2936 43.4324C61.1983 44.2121 60.231 45.2494 59.0188 45.8487C57.9273 46.3883 56.2032 46.4063 55.0141 46.4063C51.9993 46.4063 48.5507 46.4259 45.8211 44.8781C43.7533 43.7055 41.5954 42.8645 39.4688 41.8525C38.3394 41.3151 37.2381 40.5866 36.0165 40.2314C35.1918 39.9915 34.4322 39.534 33.6196 39.2504C32.7215 38.937 31.7329 38.8305 30.8676 38.5069C28.9569 37.7926 26.6822 38.0423 24.6534 38.0423C21.8958 38.0423 18.9016 39.9748 16.6638 41.4808C14.8047 42.7319 13.2868 44.3849 12.2645 46.4063C11.6302 47.6607 10.8047 48.7886 10.8047 50.3095" stroke="#FF0000" stroke-width="4" stroke-linecap="round"/>
<path d="M56.4346 48.4508C54.1943 48.8984 51.7847 49.9733 49.4707 49.7106C46.8043 49.4079 43.9782 48.6595 41.4811 47.6248C39.6724 46.8753 37.7022 45.9645 36.056 44.8781C35.1793 44.2995 34.4791 43.1972 33.6295 42.689C33.2576 42.4665 34.6012 44.176 34.8822 44.5476C35.7036 45.6337 37.3056 46.8229 38.591 47.2324C40.7709 47.9269 43.2901 49.2583 45.6041 48.4508" stroke="#FF0000" stroke-width="7" stroke-linecap="round"/>
<path d="M55.7249 50.8671C52.4052 51.5073 49.6573 52.5554 46.3543 51.7964C43.5048 51.1416 40.826 49.9676 38.1082 48.8639C34.5987 47.4387 31.0739 45.848 28.4614 42.8645C27.8534 42.1701 27.2349 41.517 26.5182 40.9335C26.2463 40.7121 28.0782 41.063 28.4713 41.2846C29.1093 41.6443 30.0826 41.3047 30.7892 41.5737C31.1384 41.7066 31.4561 41.7596 31.8249 41.7596C32.4523 41.7596 30.6057 41.4369 30.0199 41.202C28.116 40.4387 26.4369 40.2688 24.654 41.202C23.9864 41.5514 23.4703 42.1572 22.8785 42.5444C22.497 42.794 22.3902 43.6124 22.0697 43.8041C21.7019 44.0241 21.2677 45.3663 21.4778 44.9813C22.0935 43.8535 23.5824 43.8041 24.654 43.8041C26.2017 43.8041 27.2488 44.2027 28.6389 44.8264C29.4237 45.1785 30.0691 46.0113 30.8682 46.2204" stroke="#FF0000" stroke-width="7" stroke-linecap="round"/>
<path d="M21.635 42.1313C20.1611 42.1313 18.1635 43.308 17.0977 44.3618C16.466 44.9862 17.2318 44.5105 17.5613 44.1656C18.3237 43.3674 19.4702 42.6295 20.5796 42.5134C21.5185 42.4151 24.3541 42.5031 23.4105 42.5031C22.3527 42.5031 21.1839 43.0339 20.3034 43.6286C18.9407 44.549 17.3068 45.5261 17.0188 47.3356" stroke="#FF0000" stroke-width="7" stroke-linecap="round"/>
<path d="M63.1815 43.99C61.8886 45.9805 60.6363 47.6108 58.9302 49.1736C58.3571 49.6986 56.7923 51.0529 56.0796 51.0529" stroke="#FF0000" stroke-width="5" stroke-linecap="round"/>
<path d="M37.0824 49.752C35.257 49.5454 33.8071 48.7967 32.0321 48.451C30.3463 48.1226 28.7806 47.8934 27.0608 47.8934C25.1475 47.8934 23.2129 47.7075 21.2806 47.7075C18.7383 47.7075 16.7506 48.9437 14.5338 50.1651C13.4269 50.775 11.7687 51.5422 10.904 52.5297C10.5581 52.9247 10.1455 53.3134 9.77948 53.6965C9.02321 54.4883 10.2611 52.6625 10.4108 52.3955C11.0338 51.2842 11.7952 49.831 12.6696 48.9156C13.2901 48.266 13.882 46.8817 14.7114 46.5923" stroke="#FF0000" stroke-width="5" stroke-linecap="round"/>
<path d="M11.3378 48.079C10.9883 48.9277 10.7749 49.8547 10.4106 50.6811C10.1959 51.168 9.80684 51.8157 9.74971 52.3539C9.65599 53.2369 9.53479 54.434 9.16775 55.2452C9.00639 55.6018 8.95662 57.5157 9.03952 56.0403C9.13741 54.2982 9.52804 52.2398 10.2725 50.6811" stroke="#FF0000" stroke-width="5" stroke-linecap="round"/>
<path d="M74.2936 15.4324C73.1983 16.2121 72.231 17.2494 71.0188 17.8487C69.9273 18.3883 68.2032 18.4063 67.0141 18.4063C63.9993 18.4063 60.5507 18.4259 57.8211 16.8781C55.7533 15.7055 53.5954 14.8645 51.4688 13.8525C50.3394 13.3151 49.2381 12.5866 48.0165 12.2314C47.1918 11.9915 46.4322 11.534 45.6196 11.2504C44.7215 10.937 43.7329 10.8305 42.8676 10.5069C40.9569 9.79257 38.6822 10.0423 36.6534 10.0423C33.8958 10.0423 30.9016 11.9748 28.6638 13.4808C26.8047 14.7319 25.2868 16.3849 24.2645 18.4063C23.6302 19.6607 22.8047 20.7886 22.8047 22.3095" stroke="#FF0000" stroke-width="4" stroke-linecap="round"/>
<path d="M68.4346 20.4508C66.1943 20.8984 63.7847 21.9733 61.4707 21.7106C58.8043 21.4079 55.9782 20.6595 53.4811 19.6248C51.6724 18.8753 49.7022 17.9645 48.056 16.8781C47.1793 16.2995 46.4791 15.1972 45.6295 14.689C45.2576 14.4665 46.6012 16.176 46.8822 16.5476C47.7036 17.6337 49.3056 18.8229 50.591 19.2324C52.7709 19.9269 55.2901 21.2583 57.6041 20.4508" stroke="#FF0000" stroke-width="7" stroke-linecap="round"/>
<path d="M67.7249 22.8671C64.4052 23.5073 61.6573 24.5554 58.3543 23.7964C55.5048 23.1416 52.826 21.9676 50.1082 20.8639C46.5987 19.4387 43.0739 17.848 40.4614 14.8645C39.8534 14.1701 39.2349 13.517 38.5182 12.9335C38.2463 12.7121 40.0782 13.063 40.4713 13.2846C41.1093 13.6443 42.0826 13.3047 42.7892 13.5737C43.1384 13.7066 43.4561 13.7596 43.8249 13.7596C44.4523 13.7596 42.6057 13.4369 42.0199 13.202C40.116 12.4387 38.4369 12.2688 36.654 13.202C35.9864 13.5514 35.4703 14.1572 34.8785 14.5444C34.497 14.794 34.3902 15.6124 34.0697 15.8041C33.7019 16.0241 33.2677 17.3663 33.4778 16.9813C34.0935 15.8535 35.5824 15.8041 36.654 15.8041C38.2017 15.8041 39.2488 16.2027 40.6389 16.8264C41.4237 17.1785 42.0691 18.0113 42.8682 18.2204" stroke="#FF0000" stroke-width="7" stroke-linecap="round"/>
<path d="M33.635 14.1313C32.1611 14.1313 30.1635 15.308 29.0977 16.3618C28.466 16.9862 29.2318 16.5105 29.5613 16.1656C30.3237 15.3674 31.4702 14.6295 32.5796 14.5134C33.5185 14.4151 36.3541 14.5031 35.4105 14.5031C34.3527 14.5031 33.1839 15.0339 32.3034 15.6286C30.9407 16.549 29.3068 17.5261 29.0188 19.3356" stroke="#FF0000" stroke-width="7" stroke-linecap="round"/>
<path d="M75.1815 15.99C73.8886 17.9805 72.6363 19.6108 70.9302 21.1736C70.3571 21.6986 68.7923 23.0529 68.0796 23.0529" stroke="#FF0000" stroke-width="5" stroke-linecap="round"/>
<path d="M49.0824 21.752C47.257 21.5454 45.8071 20.7967 44.0321 20.451C42.3463 20.1226 40.7806 19.8934 39.0608 19.8934C37.1475 19.8934 35.2129 19.7075 33.2806 19.7075C30.7383 19.7075 28.7506 20.9437 26.5338 22.1651C25.4269 22.775 23.7687 23.5422 22.904 24.5297C22.5581 24.9247 22.1455 25.3134 21.7795 25.6965C21.0232 26.4883 22.2611 24.6625 22.4108 24.3955C23.0338 23.2842 23.7952 21.831 24.6696 20.9156C25.2901 20.266 25.882 18.8817 26.7114 18.5923" stroke="#FF0000" stroke-width="5" stroke-linecap="round"/>
<path d="M23.3378 20.079C22.9883 20.9277 22.7749 21.8547 22.4106 22.6811C22.1959 23.168 21.8068 23.8157 21.7497 24.3539C21.656 25.2369 21.5348 26.434 21.1677 27.2452C21.0064 27.6018 20.9566 29.5157 21.0395 28.0403C21.1374 26.2982 21.528 24.2398 22.2725 22.6811" stroke="#FF0000" stroke-width="5" stroke-linecap="round"/>
<path d="M27 68V77" stroke="#FF0000" stroke-width="3" stroke-linecap="round"/>
<path d="M53 68V77" stroke="#FF0000" stroke-width="3" stroke-linecap="round"/>
<path d="M32.9941 66C32.3344 67.805 32.1917 69.7067 32.1917 71.6107C32.1917 72.8122 32.058 73.9968 32.058 75.1886C32.058 75.2934 31.887 77.8826 32.1323 77.9465C33.0168 78.1771 34.0898 77.5874 35 77.5874" stroke="#FF0000" stroke-width="3" stroke-linecap="round"/>
<path d="M40.3729 67.4364C40.3112 69.9426 40.1727 72.4246 40.0047 74.9178C39.9696 75.4385 40.1386 75.9071 40.2201 76.4141C40.3099 76.973 40.3798 77.5793 41.0606 77.7241C41.5236 77.8226 42.0271 77.1754 42.2484 76.8929C43.0932 75.8145 43.3541 74.4757 43.7488 73.2087C43.9248 72.6439 43.9989 72.1484 43.9989 71.5661C43.9989 70.8301 44.0328 73.0449 44.1795 73.7673C44.4405 75.0522 44.5033 76.6593 45.3118 77.7773C45.6579 78.256 45.8776 77.874 46.0272 77.4648C46.4745 76.2413 46.7346 75.0707 46.8469 73.7806C47.0208 71.7827 47.3829 69.7803 47.8055 67.8155C47.9289 67.2419 47.7293 66.5184 48 66" stroke="#FF0000" stroke-width="3" stroke-linecap="round"/>
<path d="M71 66C70.5329 70.0768 69.2995 73.9767 70.5311 78" stroke="#FF0000" stroke-width="3" stroke-linecap="round"/>
<path d="M72.2484 66C74.0968 66.7584 75.2633 67.767 76.3186 69.3836C77.1696 70.6872 77.1497 72.6435 76.6635 74.0538C76.1832 75.4472 75.1779 75.7757 73.8213 76.3053C73.2926 76.5116 72.5623 77 72 77" stroke="#FF0000" stroke-width="3" stroke-linecap="round"/>
<path d="M57.1947 76.5916C57.1214 75.4497 56.9251 74.3516 57.0304 73.2049C57.1165 72.2659 57.3173 71.351 57.7559 70.5131C58.1621 69.737 58.6091 68.998 59.207 68.3517C59.6551 67.8674 60.2894 67.2844 60.9302 67.0952C61.2278 67.0073 61.4619 66.9344 61.7464 67.0952C62.1388 67.3169 62.5746 67.5896 62.9084 67.895C63.3107 68.2632 63.5723 68.8916 63.7643 69.3927C63.9581 69.8984 64.1818 70.335 64.3113 70.8733C64.4603 71.4926 64.513 72.1333 64.5919 72.7652C64.6905 73.5551 64.7959 74.3095 64.7959 75.1081C64.7959 75.7372 64.8966 76.379 65 77" stroke="#FF0000" stroke-width="3" stroke-linecap="round"/>
<path d="M5 66C7.96529 66 11.0463 66 14 66" stroke="#FF0000" stroke-width="3" stroke-linecap="round"/>
<path d="M9 67C9 70.005 9 72.996 9 76" stroke="#FF0000" stroke-width="3" stroke-linecap="round"/>
<path d="M15.1631 77.1068C15.553 74.539 16.0416 71.535 17.9427 69.5881C18.4556 69.0627 19.0932 68.7611 19.6841 68.3516C20.3342 67.9011 20.5761 68.1088 21.032 68.6775C22.8313 70.9218 21.9446 74.5221 21.9446 77.1068" stroke="#FF0000" stroke-width="3" stroke-linecap="round"/>
<path d="M16.1631 74.1068C17.7162 74.1068 19.1236 74.1068 20.6464 74.1068C21.1694 74.1068 21.6499 74.1068 22.1631 74.1068" stroke="#FF0000" stroke-width="3" stroke-linecap="round"/>
</svg>
