<svg width="84" height="84" viewBox="0 0 84 84" fill="none" xmlns="http://www.w3.org/2000/svg">
<g clip-path="url(#clip0_85_1186)">
<rect x="2" y="2" width="80" height="80" fill="white"/>
<path d="M32.6504 73.7522C42.2233 63.8223 51.7964 53.8922 61.3699 43.9617C64.1847 41.0419 66.9766 38.1458 69.7898 35.2277C71.7348 33.2102 73.679 31.1935 75.6273 29.1726" stroke="#FF0000" stroke-width="3" stroke-linecap="round"/>
<path d="M28.1919 56.7642C34.94 49.7644 41.6883 42.7645 48.4368 35.7643C50.421 33.7061 52.3891 31.6646 54.3722 29.6076C55.7432 28.1854 57.1137 26.7638 58.4871 25.3392" stroke="#FF0000" stroke-width="3" stroke-linecap="round"/>
<path d="M23.0444 41.9319C27.5955 37.2111 32.1466 32.4902 36.698 27.7692C38.0362 26.3811 39.3635 25.0043 40.7009 23.617C41.6256 22.6578 42.5498 21.6991 43.4761 20.7383" stroke="#FF0000" stroke-width="3" stroke-linecap="round"/>
<path d="M19.3374 28.4874C21.6914 26.0456 24.0454 23.6038 26.3996 21.1619C27.0917 20.4439 27.7783 19.7318 28.4701 19.0142C28.9483 18.5181 29.4264 18.0222 29.9055 17.5252" stroke="#FF0000" stroke-width="3" stroke-linecap="round"/>
<path d="M32.4541 73.6711C28.4289 60.4096 24.4037 47.1478 20.3782 33.8855C19.1947 29.986 18.0207 26.1183 16.8378 22.2211C16.02 19.5267 15.2025 16.8334 14.3833 14.1344" stroke="#FF0000" stroke-width="3" stroke-linecap="round"/>
<path d="M74.6372 28.459C61.173 25.1615 47.7085 21.864 34.2435 18.5663C30.2844 17.5968 26.3576 16.6351 22.4008 15.666C19.6652 14.9961 16.9308 14.3264 14.1905 13.6553" stroke="#FF0000" stroke-width="3" stroke-linecap="round"/>
<path d="M35.2407 30.6857C39.0123 32.0839 42.8337 33.4275 46.6612 34.6494C47.162 34.8093 47.8093 35.0475 48.3386 35.0338" stroke="#FF0000" stroke-width="3" stroke-linecap="round"/>
<path d="M43.5214 22.7732C45.2123 26.4825 46.8641 30.2728 48.2452 34.1158C48.329 34.349 48.4967 34.6895 48.6715 34.8579" stroke="#FF0000" stroke-width="3" stroke-linecap="round"/>
<path d="M25.1738 41.1642C28.9455 42.5625 32.7668 43.906 36.5943 45.1279C37.0951 45.2878 37.7424 45.526 38.2717 45.5123" stroke="#FF0000" stroke-width="3" stroke-linecap="round"/>
<path d="M33.454 33.2517C35.1449 36.961 36.7968 40.7513 38.1778 44.5943C38.2616 44.8275 38.4294 45.168 38.6041 45.3364" stroke="#FF0000" stroke-width="3" stroke-linecap="round"/>
<path d="M20.042 27.7567C23.8136 29.155 27.635 30.4985 31.4625 31.7205C31.9632 31.8803 32.6106 32.1185 33.1398 32.1049" stroke="#FF0000" stroke-width="3" stroke-linecap="round"/>
<path d="M28.3221 19.8441C30.013 23.5534 31.6649 27.3438 33.0459 31.1867C33.1297 31.4199 33.2975 31.7604 33.4722 31.9288" stroke="#FF0000" stroke-width="3" stroke-linecap="round"/>
<path d="M50.0483 35.5338C53.82 36.9321 57.6413 38.2756 61.4688 39.4976C61.9696 39.6574 62.6169 39.8956 63.1462 39.882" stroke="#FF0000" stroke-width="3" stroke-linecap="round"/>
<path d="M58.3285 27.6214C60.0194 31.3306 61.6713 35.121 63.0523 38.9639C63.1361 39.1972 63.3039 39.5376 63.4786 39.7061" stroke="#FF0000" stroke-width="3" stroke-linecap="round"/>
<path d="M40.1846 45.7651C43.9562 47.1634 47.7776 48.507 51.6051 49.7289C52.1058 49.8887 52.7532 50.127 53.2824 50.1133" stroke="#FF0000" stroke-width="3" stroke-linecap="round"/>
<path d="M48.4652 37.8527C50.1561 41.5619 51.808 45.3523 53.189 49.1953C53.2728 49.4285 53.4406 49.769 53.6153 49.9374" stroke="#FF0000" stroke-width="3" stroke-linecap="round"/>
<path d="M29.6167 56.7274C33.3883 58.1257 37.2097 59.4692 41.0372 60.6912C41.5379 60.851 42.1853 61.0892 42.7145 61.0756" stroke="#FF0000" stroke-width="3" stroke-linecap="round"/>
<path d="M37.8969 48.815C39.5877 52.5242 41.2396 56.3146 42.6206 60.1575C42.7045 60.3908 42.8722 60.7312 43.047 60.8997" stroke="#FF0000" stroke-width="3" stroke-linecap="round"/>
</g>
<rect x="1" y="1" width="82" height="82" stroke="black" stroke-width="2"/>
<defs>
<clipPath id="clip0_85_1186">
<rect x="2" y="2" width="80" height="80" fill="white"/>
</clipPath>
</defs>
</svg>
