<svg width="82" height="82" viewBox="0 0 82 82" fill="none" xmlns="http://www.w3.org/2000/svg">
<g clip-path="url(#clip0_85_1186)">
<rect x="1" y="1" width="80" height="80" fill="white"/>
<path d="M31.6504 72.7522C41.2233 62.8223 50.7964 52.8922 60.3699 42.9617C63.1847 40.0419 65.9766 37.1458 68.7898 34.2277C70.7348 32.2102 72.679 30.1935 74.6273 28.1726" stroke="#FF0000" stroke-width="3" stroke-linecap="round"/>
<path d="M27.1919 55.7642C33.94 48.7644 40.6883 41.7645 47.4368 34.7643C49.421 32.7061 51.3891 30.6646 53.3722 28.6076C54.7432 27.1854 56.1137 25.7638 57.4871 24.3392" stroke="#FF0000" stroke-width="3" stroke-linecap="round"/>
<path d="M22.0444 40.9319C26.5955 36.2111 31.1466 31.4902 35.698 26.7692C37.0362 25.3811 38.3635 24.0043 39.7009 22.617C40.6256 21.6578 41.5498 20.6991 42.4761 19.7383" stroke="#FF0000" stroke-width="3" stroke-linecap="round"/>
<path d="M18.3374 27.4874C20.6914 25.0456 23.0454 22.6038 25.3996 20.1619C26.0917 19.4439 26.7783 18.7318 27.4701 18.0142C27.9483 17.5181 28.4264 17.0222 28.9055 16.5252" stroke="#FF0000" stroke-width="3" stroke-linecap="round"/>
<path d="M31.4541 72.6711C27.4289 59.4096 23.4037 46.1478 19.3782 32.8855C18.1947 28.986 17.0207 25.1183 15.8378 21.2211C15.02 18.5267 14.2025 15.8334 13.3833 13.1344" stroke="#FF0000" stroke-width="3" stroke-linecap="round"/>
<path d="M73.6372 27.459C60.173 24.1615 46.7085 20.864 33.2435 17.5663C29.2844 16.5968 25.3576 15.6351 21.4008 14.666C18.6652 13.9961 15.9308 13.3264 13.1905 12.6553" stroke="#FF0000" stroke-width="3" stroke-linecap="round"/>
<path d="M34.2407 29.6857C38.0123 31.0839 41.8337 32.4275 45.6612 33.6494C46.162 33.8093 46.8093 34.0475 47.3386 34.0338" stroke="#FF0000" stroke-width="3" stroke-linecap="round"/>
<path d="M42.5214 21.7732C44.2123 25.4825 45.8641 29.2728 47.2452 33.1158C47.329 33.349 47.4967 33.6895 47.6715 33.8579" stroke="#FF0000" stroke-width="3" stroke-linecap="round"/>
<path d="M24.1738 40.1642C27.9455 41.5625 31.7668 42.906 35.5943 44.1279C36.0951 44.2878 36.7424 44.526 37.2717 44.5123" stroke="#FF0000" stroke-width="3" stroke-linecap="round"/>
<path d="M32.454 32.2517C34.1449 35.961 35.7968 39.7513 37.1778 43.5943C37.2616 43.8275 37.4294 44.168 37.6041 44.3364" stroke="#FF0000" stroke-width="3" stroke-linecap="round"/>
<path d="M19.042 26.7567C22.8136 28.155 26.635 29.4985 30.4625 30.7205C30.9632 30.8803 31.6106 31.1185 32.1398 31.1049" stroke="#FF0000" stroke-width="3" stroke-linecap="round"/>
<path d="M27.3221 18.8441C29.013 22.5534 30.6649 26.3438 32.0459 30.1867C32.1297 30.4199 32.2975 30.7604 32.4722 30.9288" stroke="#FF0000" stroke-width="3" stroke-linecap="round"/>
<path d="M49.0483 34.5338C52.82 35.9321 56.6413 37.2756 60.4688 38.4976C60.9696 38.6574 61.6169 38.8956 62.1462 38.882" stroke="#FF0000" stroke-width="3" stroke-linecap="round"/>
<path d="M57.3285 26.6214C59.0194 30.3306 60.6713 34.121 62.0523 37.9639C62.1361 38.1972 62.3039 38.5376 62.4786 38.7061" stroke="#FF0000" stroke-width="3" stroke-linecap="round"/>
<path d="M39.1846 44.7651C42.9562 46.1634 46.7776 47.507 50.6051 48.7289C51.1058 48.8887 51.7532 49.127 52.2824 49.1133" stroke="#FF0000" stroke-width="3" stroke-linecap="round"/>
<path d="M47.4652 36.8527C49.1561 40.5619 50.808 44.3523 52.189 48.1953C52.2728 48.4285 52.4406 48.769 52.6153 48.9374" stroke="#FF0000" stroke-width="3" stroke-linecap="round"/>
<path d="M28.6167 55.7274C32.3883 57.1257 36.2097 58.4692 40.0372 59.6912C40.5379 59.851 41.1853 60.0892 41.7145 60.0756" stroke="#FF0000" stroke-width="3" stroke-linecap="round"/>
<path d="M36.8969 47.815C38.5877 51.5242 40.2396 55.3146 41.6206 59.1575C41.7045 59.3908 41.8722 59.7312 42.047 59.8997" stroke="#FF0000" stroke-width="3" stroke-linecap="round"/>
</g>
<rect x="0.75" y="0.75" width="80.5" height="80.5" stroke="black" stroke-width="0.5"/>
<defs>
<clipPath id="clip0_85_1186">
<rect x="1" y="1" width="80" height="80" fill="white"/>
</clipPath>
</defs>
</svg>
