<svg width="82" height="82" viewBox="0 0 82 82" fill="none" xmlns="http://www.w3.org/2000/svg">
<rect x="0.75" y="0.75" width="80.5" height="80.5" fill="white"/>
<rect x="0.75" y="0.75" width="80.5" height="80.5" stroke="black" stroke-width="0.5"/>
<path d="M41.623 39.1992C41.623 42.72 41.9652 46.2871 42.2269 49.784C42.3747 51.7594 41.9292 53.6201 41.9292 55.5656" stroke="#FF0000" stroke-width="3" stroke-linecap="round"/>
<path d="M18.336 20.1643C18.1409 25.437 17.7315 30.8198 18.2595 36.0958C18.4596 38.0955 18.183 40.1937 18.183 42.2233" stroke="#FF0000" stroke-opacity="0.7" stroke-width="3" stroke-linecap="round"/>
<path d="M42.2356 56.0991C39.4999 54.8423 36.3732 53.6919 33.9457 51.6418C32.1259 50.105 29.7516 49.7246 27.7155 48.7263C26.1708 47.969 24.4945 46.955 23.0854 46.137" stroke="#FF0000" stroke-opacity="0.7" stroke-width="3" stroke-linecap="round"/>
<path d="M42.8491 56.277C45.683 54.7531 48.5807 53.4017 51.4028 51.8494C52.2918 51.3604 52.968 50.5009 53.8455 50.0507C55.1738 49.3692 56.682 48.3976 57.7096 47.2043" stroke="#FF0000" stroke-width="3" stroke-linecap="round"/>
<path d="M64.4502 19.9863C65.1311 26.7114 64.4502 33.733 64.4502 40.4443" stroke="#FF0000" stroke-width="3" stroke-linecap="round"/>
<path d="M18.4902 19.6305C18.548 20.2339 19.3671 20.6439 19.7158 20.9549C20.9317 22.0394 22.0858 23.1324 23.4012 24.0779C25.9132 25.8836 28.2024 28.025 30.7463 29.7706C32.6584 31.0825 34.5188 32.4606 36.4318 33.7732C37.2206 34.3145 37.9581 34.9227 38.7468 35.4632C39.329 35.8622 40.0239 36.1483 40.5512 36.6294C41.2099 37.2304 41.9083 37.788 42.5428 38.4084C43.1469 38.9991 44.8698 36.9945 45.3004 36.6195C46.2037 35.8328 47.1895 35.1935 48.058 34.3563C49.6836 32.7893 51.7127 31.6506 53.4966 30.3141C55.3504 28.9254 57.4467 27.8965 59.2417 26.3807C61.1146 24.799 62.897 23.2134 64.5271 21.3206C65.2784 20.4481 65.2694 20.3035 64.4505 19.4527C63.3737 18.3339 61.818 17.6076 60.5013 16.9621C57.1151 15.3019 53.9904 12.9154 50.6709 11.1015C49.0467 10.2139 47.4907 9.18731 45.9132 8.24527C45.2182 7.83025 44.5087 7.28654 43.7684 7" stroke="#FF0000" stroke-opacity="0.57" stroke-width="3" stroke-linecap="round"/>
<path d="M18.3364 19.4527C19.0132 18.9389 19.6104 18.2802 20.328 17.8517C21.4958 17.1543 22.7319 16.7093 23.9197 16.0727C26.0845 14.9126 28.2139 13.6233 30.3627 12.416C31.8758 11.5658 33.2498 10.3971 34.7289 9.49062C35.3967 9.08136 36.9919 8.50455 37.3333 7.71167" stroke="#FF0000" stroke-opacity="0.57" stroke-width="3" stroke-linecap="round"/>
<path d="M9 66.387C9.03991 68.8684 9.20539 71.3414 9.20539 73.8364C9.20539 75.8484 11.6388 77.9111 13.6784 77.9965C16.4573 78.1128 18.1191 75.3358 18.7447 73.0624C19.3682 70.7968 18.6534 68.2829 18.6534 66" stroke="#FF0000" stroke-width="3" stroke-linecap="round"/>
<path d="M48.4248 64.6011C51.8243 64.6813 55.3565 64.9569 58.7427 64.9569" stroke="#FF0000" stroke-width="3" stroke-linecap="round"/>
<path d="M67.5142 77.7638C68.7452 75.3367 70.2449 72.9823 71.0708 70.3843C71.3021 69.6569 71.4021 68.8153 71.772 68.1494C72.0486 67.6516 72.4891 66.4115 72.5284 65.8163" stroke="#FF0000" stroke-width="3" stroke-linecap="round"/>
<path d="M64.7793 64.8269C66.0673 66.591 67.3404 68.3675 68.6842 70.0899C68.7972 70.2347 68.8476 70.384 69.0032 70.4919C69.2633 70.6723 69.4331 71.0341 69.7104 71.0524" stroke="#FF0000" stroke-width="3" stroke-linecap="round"/>
<path d="M42.4062 67.6665C42.4947 71.0812 42.6117 74.5272 42.6117 77.9367" stroke="#FF0000" stroke-width="3" stroke-linecap="round"/>
<path d="M41.9953 63.0107C41.9672 63.1154 41.9165 63.3123 42.0105 63.4063C42.0661 63.4618 42.1852 63.4197 42.1969 63.3493C42.2398 63.0918 42.0539 63.1477 41.8584 63.1477" stroke="#FF0000" stroke-width="3" stroke-linecap="round"/>
<path d="M52.9502 66.3655C52.9575 69.9317 53.1556 73.4814 53.1556 77.0465" stroke="#FF0000" stroke-width="3" stroke-linecap="round"/>
<path d="M24.6051 77.3888C24.5067 75.8575 24.2433 74.3849 24.3845 72.8471C24.5001 71.5879 24.7696 70.361 25.3583 69.2373C25.9034 68.1965 26.5033 67.2055 27.3058 66.3388C27.9072 65.6893 28.7585 64.9075 29.6185 64.6537C30.018 64.5359 30.3321 64.4382 30.714 64.6537C31.2407 64.9511 31.8255 65.3168 32.2735 65.7264C32.8135 66.2201 33.1645 67.0628 33.4223 67.7348C33.6824 68.413 33.9826 68.9985 34.1564 69.7204C34.3563 70.5508 34.427 71.41 34.533 72.2575C34.6654 73.3167 34.8068 74.3284 34.8068 75.3994C34.8068 76.243 34.9419 77.1037 35.0807 77.9365" stroke="#FF0000" stroke-width="3" stroke-linecap="round"/>
</svg>
