<svg width="84" height="84" viewBox="0 0 84 84" fill="none" xmlns="http://www.w3.org/2000/svg">
<rect x="1" y="1" width="82" height="82" fill="white"/>
<rect x="1" y="1" width="82" height="82" stroke="black" stroke-width="2"/>
<path d="M42.623 40.1992C42.623 43.72 42.9652 47.2871 43.2269 50.784C43.3747 52.7594 42.9292 54.6201 42.9292 56.5656" stroke="#FF0000" stroke-width="3" stroke-linecap="round"/>
<path d="M19.336 21.1643C19.1409 26.437 18.7315 31.8198 19.2595 37.0958C19.4596 39.0955 19.183 41.1937 19.183 43.2233" stroke="#FF0000" stroke-opacity="0.7" stroke-width="3" stroke-linecap="round"/>
<path d="M43.2356 57.0991C40.4999 55.8423 37.3732 54.6919 34.9457 52.6418C33.1259 51.105 30.7516 50.7246 28.7155 49.7263C27.1708 48.969 25.4945 47.955 24.0854 47.137" stroke="#FF0000" stroke-opacity="0.7" stroke-width="3" stroke-linecap="round"/>
<path d="M43.8491 57.277C46.683 55.7531 49.5807 54.4017 52.4028 52.8494C53.2918 52.3604 53.968 51.5009 54.8455 51.0507C56.1738 50.3692 57.682 49.3976 58.7096 48.2043" stroke="#FF0000" stroke-width="3" stroke-linecap="round"/>
<path d="M65.4502 20.9863C66.1311 27.7114 65.4502 34.733 65.4502 41.4443" stroke="#FF0000" stroke-width="3" stroke-linecap="round"/>
<path d="M19.4902 20.6305C19.548 21.2339 20.3671 21.6439 20.7158 21.9549C21.9317 23.0394 23.0858 24.1324 24.4012 25.0779C26.9132 26.8836 29.2024 29.025 31.7463 30.7706C33.6584 32.0825 35.5188 33.4606 37.4318 34.7732C38.2206 35.3145 38.9581 35.9227 39.7468 36.4632C40.329 36.8622 41.0239 37.1483 41.5512 37.6294C42.2099 38.2304 42.9083 38.788 43.5428 39.4084C44.1469 39.9991 45.8698 37.9945 46.3004 37.6195C47.2037 36.8328 48.1895 36.1935 49.058 35.3563C50.6836 33.7893 52.7127 32.6506 54.4966 31.3141C56.3504 29.9254 58.4467 28.8965 60.2417 27.3807C62.1146 25.799 63.897 24.2134 65.5271 22.3206C66.2784 21.4481 66.2694 21.3035 65.4505 20.4527C64.3737 19.3339 62.818 18.6076 61.5013 17.9621C58.1151 16.3019 54.9904 13.9154 51.6709 12.1015C50.0467 11.2139 48.4907 10.1873 46.9132 9.24527C46.2182 8.83025 45.5087 8.28654 44.7684 8" stroke="#FF0000" stroke-opacity="0.57" stroke-width="3" stroke-linecap="round"/>
<path d="M19.3364 20.4527C20.0132 19.9389 20.6104 19.2802 21.328 18.8517C22.4958 18.1543 23.7319 17.7093 24.9197 17.0727C27.0845 15.9126 29.2139 14.6233 31.3627 13.416C32.8758 12.5658 34.2498 11.3971 35.7289 10.4906C36.3967 10.0814 37.9919 9.50455 38.3333 8.71167" stroke="#FF0000" stroke-opacity="0.57" stroke-width="3" stroke-linecap="round"/>
<path d="M10 67.387C10.0399 69.8684 10.2054 72.3414 10.2054 74.8364C10.2054 76.8484 12.6388 78.9111 14.6784 78.9965C17.4573 79.1128 19.1191 76.3358 19.7447 74.0624C20.3682 71.7968 19.6534 69.2829 19.6534 67" stroke="#FF0000" stroke-width="3" stroke-linecap="round"/>
<path d="M49.4248 65.6011C52.8243 65.6813 56.3565 65.9569 59.7427 65.9569" stroke="#FF0000" stroke-width="3" stroke-linecap="round"/>
<path d="M68.5142 78.7638C69.7452 76.3367 71.2449 73.9823 72.0708 71.3843C72.3021 70.6569 72.4021 69.8153 72.772 69.1494C73.0486 68.6516 73.4891 67.4115 73.5284 66.8163" stroke="#FF0000" stroke-width="3" stroke-linecap="round"/>
<path d="M65.7793 65.8269C67.0673 67.591 68.3404 69.3675 69.6842 71.0899C69.7972 71.2347 69.8476 71.384 70.0032 71.4919C70.2633 71.6723 70.4331 72.0341 70.7104 72.0524" stroke="#FF0000" stroke-width="3" stroke-linecap="round"/>
<path d="M43.4062 68.6665C43.4947 72.0812 43.6117 75.5272 43.6117 78.9367" stroke="#FF0000" stroke-width="3" stroke-linecap="round"/>
<path d="M42.9953 64.0107C42.9672 64.1154 42.9165 64.3123 43.0105 64.4063C43.0661 64.4618 43.1852 64.4197 43.1969 64.3493C43.2398 64.0918 43.0539 64.1477 42.8584 64.1477" stroke="#FF0000" stroke-width="3" stroke-linecap="round"/>
<path d="M53.9502 67.3655C53.9575 70.9317 54.1556 74.4814 54.1556 78.0465" stroke="#FF0000" stroke-width="3" stroke-linecap="round"/>
<path d="M25.6051 78.3888C25.5067 76.8575 25.2433 75.3849 25.3845 73.8471C25.5001 72.5879 25.7696 71.361 26.3583 70.2373C26.9034 69.1965 27.5033 68.2055 28.3058 67.3388C28.9072 66.6893 29.7585 65.9075 30.6185 65.6537C31.018 65.5359 31.3321 65.4382 31.714 65.6537C32.2407 65.9511 32.8255 66.3168 33.2735 66.7264C33.8135 67.2201 34.1645 68.0628 34.4223 68.7348C34.6824 69.413 34.9826 69.9985 35.1564 70.7204C35.3563 71.5508 35.427 72.41 35.533 73.2575C35.6654 74.3167 35.8068 75.3284 35.8068 76.3994C35.8068 77.243 35.9419 78.1037 36.0807 78.9365" stroke="#FF0000" stroke-width="3" stroke-linecap="round"/>
</svg>
